#N canvas 200 50 1859 1143 10;
#N canvas 1081 171 450 300 gen 0;
#X obj 46 118 f;
#X obj 46 209 + 50;
#X obj 86 115 + 1;
#X obj 46 147 mod 4;
#N canvas 909 119 828 588 Maj 0;
#X obj 91 147 inlet;
#X obj 91 169 mod 8;
#X obj 91 191 sel 0 1 2 3 4 5 6 7;
#X obj 115 303 outlet;
#X obj 274 161 unpack f f f f f f f f;
#X obj 67 235 f;
#X obj 98 237 f;
#X obj 129 235 f;
#X obj 157 238 f;
#X obj 186 237 f;
#X obj 214 237 f;
#X obj 242 237 f;
#X obj 272 236 f;
#X obj 314 8 inlet;
#X msg 281 96 0 2 3 5 7 8 10 12;
#X msg 258 69 0 2 4 5 7 9 11 12;
#X msg 302 124 0 2 3 5 7 9 11 12;
#X obj 313 40 sel 0 1 2, f 15;
#X connect 0 0 1 0;
#X connect 1 0 2 0;
#X connect 2 0 5 0;
#X connect 2 1 6 0;
#X connect 2 2 7 0;
#X connect 2 3 8 0;
#X connect 2 4 9 0;
#X connect 2 5 10 0;
#X connect 2 6 11 0;
#X connect 2 7 12 0;
#X connect 4 0 5 1;
#X connect 4 1 6 1;
#X connect 4 2 7 1;
#X connect 4 3 8 1;
#X connect 4 4 9 1;
#X connect 4 5 10 1;
#X connect 4 6 11 1;
#X connect 4 7 12 1;
#X connect 5 0 3 0;
#X connect 6 0 3 0;
#X connect 7 0 3 0;
#X connect 8 0 3 0;
#X connect 9 0 3 0;
#X connect 10 0 3 0;
#X connect 11 0 3 0;
#X connect 12 0 3 0;
#X connect 13 0 17 0;
#X connect 14 0 4 0;
#X connect 15 0 4 0;
#X connect 16 0 4 0;
#X connect 17 0 15 0;
#X connect 17 1 14 0;
#X connect 17 2 16 0;
#X restore 47 181 pd Maj;
#X obj 129 62 inlet;
#X obj 48 236 outlet;
#X obj 127 98 unpack f f f f;
#X obj 44 58 inlet;
#X connect 0 0 2 0;
#X connect 0 0 3 0;
#X connect 1 0 6 0;
#X connect 2 0 0 1;
#X connect 3 0 4 0;
#X connect 4 0 1 0;
#X connect 5 0 7 0;
#X connect 7 0 2 1;
#X connect 7 1 3 1;
#X connect 7 2 4 1;
#X connect 7 3 1 1;
#X connect 8 0 0 0;
#X restore 36 420 pd gen;
#X obj 204 118 s time;
#N canvas 0 50 450 300 gen 0;
#X obj 46 118 f;
#X obj 46 209 + 50;
#X obj 86 115 + 1;
#X obj 46 147 mod 4;
#N canvas 909 119 828 588 Maj 0;
#X obj 91 147 inlet;
#X obj 91 169 mod 8;
#X obj 91 191 sel 0 1 2 3 4 5 6 7;
#X obj 115 303 outlet;
#X obj 274 161 unpack f f f f f f f f;
#X obj 67 235 f;
#X obj 98 237 f;
#X obj 129 235 f;
#X obj 157 238 f;
#X obj 186 237 f;
#X obj 214 237 f;
#X obj 242 237 f;
#X obj 272 236 f;
#X obj 314 8 inlet;
#X msg 281 96 0 2 3 5 7 8 10 12;
#X msg 258 69 0 2 4 5 7 9 11 12;
#X msg 302 124 0 2 3 5 7 9 11 12;
#X obj 313 40 sel 0 1 2;
#X connect 0 0 1 0;
#X connect 1 0 2 0;
#X connect 2 0 5 0;
#X connect 2 1 6 0;
#X connect 2 2 7 0;
#X connect 2 3 8 0;
#X connect 2 4 9 0;
#X connect 2 5 10 0;
#X connect 2 6 11 0;
#X connect 2 7 12 0;
#X connect 4 0 5 1;
#X connect 4 1 6 1;
#X connect 4 2 7 1;
#X connect 4 3 8 1;
#X connect 4 4 9 1;
#X connect 4 5 10 1;
#X connect 4 6 11 1;
#X connect 4 7 12 1;
#X connect 5 0 3 0;
#X connect 6 0 3 0;
#X connect 7 0 3 0;
#X connect 8 0 3 0;
#X connect 9 0 3 0;
#X connect 10 0 3 0;
#X connect 11 0 3 0;
#X connect 12 0 3 0;
#X connect 13 0 17 0;
#X connect 14 0 4 0;
#X connect 15 0 4 0;
#X connect 16 0 4 0;
#X connect 17 0 15 0;
#X connect 17 1 14 0;
#X connect 17 2 16 0;
#X restore 47 181 pd Maj;
#X obj 129 62 inlet;
#X obj 48 236 outlet;
#X obj 127 98 unpack f f f f;
#X obj 44 58 inlet;
#X connect 0 0 2 0;
#X connect 0 0 3 0;
#X connect 1 0 6 0;
#X connect 2 0 0 1;
#X connect 3 0 4 0;
#X connect 4 0 1 0;
#X connect 5 0 7 0;
#X connect 7 0 2 1;
#X connect 7 1 3 1;
#X connect 7 2 4 1;
#X connect 7 3 1 1;
#X connect 8 0 0 0;
#X restore 267 494 pd gen;
#X obj 801 565 unpack f f f;
#N canvas 515 66 1066 686 synth 0;
#X obj 46 304 *~;
#X obj 10 233 phasor~;
#X obj 10 208 mtof;
#X obj 51 113 t f b;
#X obj 63 22 inlet;
#X obj 46 541 outlet~;
#X obj 37 165 +, f 4;
#X obj 339 13 inlet;
#X obj 229 304 *~;
#X obj 193 208 mtof;
#X obj 282 350 +~ 200;
#X obj 225 389 vcf~, f 11;
#X obj 234 113 t f b;
#X obj 220 165 +, f 4;
#X obj 193 233 osc~;
#X obj 281 329 *~ 1000;
#X obj 419 293 *~;
#X obj 383 197 mtof;
#X obj 415 378 vcf~, f 12;
#X obj 424 102 t f b;
#X obj 410 154 +, f 4;
#X obj 383 222 phasor~;
#X obj 595 275 snapshot~;
#X msg 688 221 1;
#X obj 688 248 metro 50;
#X obj 414 417 *~;
#X obj 595 224 lop~ 20;
#X obj 595 198 osc~ 0.01;
#X obj 528 391 osc~ 0.02;
#X obj 595 297 * 10000;
#X obj 688 198 loadbang;
#X obj 42 389 lop~;
#X obj 595 319 + 1700;
#X floatatom 611 351 8 0 0 0 - - -;
#X obj 595 246 clip~ 0 0.5;
#X obj 10 255 *~ 1;
#X obj 193 255 *~ 1;
#X obj 381 245 *~ 0.6;
#X msg 91 203 1;
#X obj 133 173 del 1;
#X obj 107 232 line~;
#X msg 266 201 1;
#X obj 308 171 del 1;
#X obj 282 230 line~;
#X msg 301 196 0 100;
#X msg 468 155 1;
#X obj 510 125 del 1;
#X obj 484 184 line~;
#X msg 503 150 0 120;
#X msg 126 198 0 260;
#X obj 529 414 clip~ 0 0.5;
#X connect 0 0 31 0;
#X connect 1 0 35 0;
#X connect 2 0 1 0;
#X connect 3 0 6 0;
#X connect 3 1 38 0;
#X connect 3 1 39 0;
#X connect 4 0 3 0;
#X connect 4 0 12 0;
#X connect 4 0 19 0;
#X connect 6 0 2 0;
#X connect 7 0 6 1;
#X connect 7 0 13 1;
#X connect 7 0 20 1;
#X connect 8 0 11 0;
#X connect 9 0 14 0;
#X connect 10 0 11 1;
#X connect 11 0 5 0;
#X connect 12 0 13 0;
#X connect 12 1 42 0;
#X connect 12 1 41 0;
#X connect 13 0 9 0;
#X connect 14 0 36 0;
#X connect 15 0 10 0;
#X connect 16 0 18 0;
#X connect 17 0 21 0;
#X connect 18 0 25 0;
#X connect 19 0 20 0;
#X connect 19 1 45 0;
#X connect 19 1 46 0;
#X connect 20 0 17 0;
#X connect 21 0 37 0;
#X connect 22 0 29 0;
#X connect 23 0 24 0;
#X connect 24 0 22 0;
#X connect 25 0 5 0;
#X connect 26 0 34 0;
#X connect 27 0 26 0;
#X connect 28 0 50 0;
#X connect 29 0 32 0;
#X connect 30 0 23 0;
#X connect 31 0 5 0;
#X connect 32 0 31 1;
#X connect 32 0 18 1;
#X connect 32 0 33 0;
#X connect 34 0 22 0;
#X connect 35 0 0 0;
#X connect 36 0 8 0;
#X connect 37 0 16 0;
#X connect 38 0 40 0;
#X connect 39 0 49 0;
#X connect 40 0 0 1;
#X connect 41 0 43 0;
#X connect 42 0 44 0;
#X connect 43 0 8 1;
#X connect 43 0 15 0;
#X connect 44 0 43 0;
#X connect 45 0 47 0;
#X connect 46 0 48 0;
#X connect 47 0 16 1;
#X connect 48 0 47 0;
#X connect 49 0 40 0;
#X connect 50 0 25 1;
#X restore 801 629 pd synth;
#X obj 932 885 catch~ mix;
#X obj 460 72 f;
#X obj 491 71 + 1;
#X obj 461 42 r time;
#X obj 460 97 mod 16;
#X obj 460 119 s step;
#X obj 801 535 r notes;
#N canvas 0 50 959 585 randomnoise 0;
#X obj 32 200 osc~ 616;
#X obj 56 242 *~;
#X obj 81 200 sig~ 1;
#X obj 121 123 osc~ 396;
#X obj 145 164 +~;
#X obj 169 123 sig~ 0;
#X obj 145 205 *~ 0.5;
#X obj 211 211 osc~ 5.4;
#X obj 169 247 *~;
#X obj 129 283 *~;
#X obj 228 247 osc~ 132;
#X obj 252 288 *~;
#X obj 277 247 sig~ 1;
#X obj 244 330 +~;
#X obj 244 372 *~ 0.5;
#X obj 263 119 phasor~ 396;
#X obj 312 119 osc~ 4.2;
#X obj 287 161 *~;
#X obj 434 78 noise~;
#X obj 409 119 +~;
#X obj 385 78 sig~ 0;
#X obj 409 161 *~ 0.5;
#X obj 348 202 *~;
#X obj 397 202 phasor~ 616;
#X obj 373 243 *~;
#X obj 481 161 osc~ 4.1;
#X obj 530 161 osc~ 2.3;
#X obj 506 202 *~;
#X obj 386 273 *~;
#X obj 327 413 *~;
#X obj 388 354 osc~ 8.7;
#X obj 410 481 *~;
#X obj 412 440 *~;
#X obj 410 509 outlet~;
#X obj 632 223 inlet;
#X obj 512 433 line~;
#X msg 496 404 1 2;
#X obj 538 374 del 4;
#X msg 531 399 0 500;
#X connect 0 0 1 0;
#X connect 1 0 9 0;
#X connect 2 0 1 1;
#X connect 3 0 4 0;
#X connect 4 0 6 0;
#X connect 5 0 4 1;
#X connect 6 0 8 0;
#X connect 7 0 8 1;
#X connect 8 0 9 1;
#X connect 9 0 13 0;
#X connect 10 0 11 0;
#X connect 11 0 13 1;
#X connect 12 0 11 1;
#X connect 13 0 14 0;
#X connect 14 0 29 0;
#X connect 15 0 17 0;
#X connect 16 0 17 1;
#X connect 17 0 22 0;
#X connect 18 0 19 1;
#X connect 19 0 21 0;
#X connect 20 0 19 0;
#X connect 21 0 22 1;
#X connect 22 0 24 0;
#X connect 23 0 24 1;
#X connect 24 0 28 0;
#X connect 25 0 27 0;
#X connect 26 0 27 1;
#X connect 27 0 28 1;
#X connect 28 0 29 1;
#X connect 29 0 32 0;
#X connect 30 0 32 1;
#X connect 31 0 33 0;
#X connect 32 0 31 0;
#X connect 34 0 36 0;
#X connect 34 0 37 0;
#X connect 35 0 31 1;
#X connect 36 0 35 0;
#X connect 37 0 38 0;
#X connect 38 0 35 0;
#X restore 21 924 pd randomnoise;
#X obj 814 790 throw~ mix;
#X obj 21 898 bng 15 250 50 0 empty empty empty 17 7 0 10 -262144 -1
-1;
#N canvas 375 72 1410 926 drums 0;
#X obj 38 380 *~;
#X obj 308 207 +~;
#X obj 361 164 sig~ 0;
#X obj 283 581 *~;
#X obj 520 159 noise~;
#X obj 514 305 *~;
#X obj 1061 544 osc~ 2.3;
#X obj 1015 567 *~;
#X obj 79 872 outlet~;
#X obj 284 166 noise~;
#X obj 43 79 sel 1 5 9 13;
#X obj 45 112 s kick;
#X obj 143 117 s hihat1;
#X obj 252 117 s snare;
#X obj 354 116 s hihat2;
#X obj 460 110 s cymbal;
#X obj 64 295 r kick;
#X obj 356 267 r hihat1;
#X obj 624 420 *~;
#X obj 1028 86 +~;
#X obj 1081 43 sig~ 0;
#X obj 970 366 *~;
#X obj 1004 45 noise~;
#X obj 990 526 noise~;
#X obj 139 80 sel 2 6 10 14;
#X obj 248 80 sel 3 7 11 15;
#X obj 350 79 sel 4 8 12 16;
#X floatatom 159 24 5 0 0 0 - - -;
#X obj 42 18 r drumstep;
#X obj 459 33 r kick;
#X obj 1106 582 r cymbal;
#X floatatom 538 117 5 0 0 0 - - -;
#X obj 307 233 bp~ 2000 10;
#X obj 562 284 *~ 0.6;
#X obj 1028 127 bp~ 2200 20;
#X obj 416 174 r kick;
#X obj 354 295 random 2;
#X obj 354 317 + 1;
#X obj 354 340 sel 1 2 3;
#X obj 1140 109 + 1;
#X obj 1140 132 sel 1 2 3;
#X obj 1142 59 r hihat2;
#X obj 510 280 *~ 0.7;
#X obj 93 404 bng 15 250 50 0 empty empty empty 17 7 0 10 -262144 -1
-1;
#X obj 437 340 bng 15 250 50 0 empty empty empty 17 7 0 10 -262144
-1 -1;
#X obj 1112 83 bng 15 250 50 0 empty empty empty 17 7 0 10 -262144
-1 -1;
#X obj 37 268 osc~ 60;
#X obj 460 371 r drumstep;
#X obj 457 392 bng 15 250 50 0 empty empty empty 17 7 0 10 -262144
-1 -1;
#X obj 441 436 sel 1;
#X obj 1229 44 r drumstep;
#X obj 1226 65 bng 15 250 50 0 empty empty empty 17 7 0 10 -262144
-1 -1;
#X obj 1227 111 sel 1;
#X obj 666 226 + 1;
#X obj 638 200 bng 15 250 50 0 empty empty empty 17 7 0 10 -262144
-1 -1;
#X obj 662 151 r snare;
#X obj 1140 87 random 2;
#X obj 443 210 phasor~ 1000;
#X obj 667 204 random 3;
#X obj 666 249 sel 1 2 3 4;
#X obj 460 84 sel 1;
#X obj 562 242 +~;
#X obj 569 183 sig~ 0;
#X obj 1204 616 bng 15 250 50 0 empty empty empty 17 7 0 10 -262144
-1 -1;
#X obj 1032 667 *~;
#X obj 1015 598 bp~ 5000 30;
#X obj 1031 719 throw~ rev;
#X obj 1033 692 *~ 2;
#X obj 441 414 random 40;
#X obj 1227 88 random 30;
#X obj 662 173 del 1;
#X obj 461 61 random 40;
#X floatatom 230 259 5 0 0 0 - - -;
#X obj 152 226 sel 1;
#X obj 151 175 r hihat2;
#X obj 152 252 s kick2;
#X obj 128 296 r kick2;
#X obj 153 203 random 60;
#X obj 659 114 s cowbell;
#X obj 441 674 *~;
#X obj 443 627 noise~;
#X obj 638 632 bng 15 250 50 0 empty empty empty 17 7 0 10 -262144
-1 -1;
#X obj 450 756 *~;
#X obj 546 626 r cowbell;
#X obj 54 174 inlet;
#X obj 54 196 +;
#X obj 744 19 inlet;
#X obj 54 218 mtof;
#X obj 442 705 bp~ 4000 100;
#X obj 461 651 osc~ 0.5;
#X obj 657 81 sel 5 13;
#X msg 71 353 1;
#X msg 105 348 0 80;
#X obj 79 380 line~;
#X msg 347 505 0 80;
#X obj 321 537 line~;
#X obj 406 536 line~;
#X msg 313 510 1;
#X msg 398 509 0.7;
#X obj 492 535 line~;
#X msg 432 504 0 65;
#X msg 484 508 0.8;
#X msg 518 503 0 50;
#X msg 639 327 0 80;
#X obj 613 359 line~;
#X obj 698 358 line~;
#X msg 605 332 1;
#X obj 784 357 line~;
#X obj 553 719 line~;
#X msg 545 692 0.5;
#X msg 579 687 0 80;
#X msg 724 326 0 90;
#X msg 810 325 0 100;
#X obj 870 352 line~;
#X msg 690 331 1;
#X msg 777 330 1;
#X msg 862 325 1;
#X msg 896 320 0 60;
#X obj 1074 361 line~;
#X obj 1160 360 line~;
#X obj 1239 357 line~;
#X msg 1066 334 1;
#X msg 1153 333 0.9;
#X msg 1099 329 0 80;
#X msg 1186 328 0 40;
#X msg 1238 328 0.7;
#X msg 1272 323 0 50;
#X obj 1145 621 del 2;
#X obj 1104 680 line~;
#X msg 1103 651 1;
#X msg 1137 646 0 2000;
#X obj 1108 304 del 1;
#X obj 1194 303 del 1;
#X obj 1280 298 del 1;
#X obj 647 302 del 1;
#X obj 732 301 del 1;
#X obj 818 300 del 1;
#X obj 904 295 del 1;
#X obj 355 480 del 1;
#X obj 440 479 del 1;
#X obj 526 478 del 1;
#X obj 587 662 del 1;
#X obj 113 323 del 1;
#X connect 0 0 8 0;
#X connect 1 0 32 0;
#X connect 2 0 1 1;
#X connect 3 0 8 0;
#X connect 4 0 61 0;
#X connect 5 0 18 0;
#X connect 6 0 7 1;
#X connect 7 0 65 0;
#X connect 9 0 1 0;
#X connect 10 0 11 0;
#X connect 10 1 11 0;
#X connect 10 2 11 0;
#X connect 10 3 11 0;
#X connect 16 0 43 0;
#X connect 16 0 91 0;
#X connect 16 0 142 0;
#X connect 17 0 36 0;
#X connect 17 0 44 0;
#X connect 17 0 68 0;
#X connect 18 0 8 0;
#X connect 19 0 34 0;
#X connect 20 0 19 1;
#X connect 21 0 8 0;
#X connect 22 0 19 0;
#X connect 23 0 7 0;
#X connect 24 0 12 0;
#X connect 24 1 12 0;
#X connect 24 2 12 0;
#X connect 24 3 12 0;
#X connect 25 0 13 0;
#X connect 25 1 13 0;
#X connect 25 2 13 0;
#X connect 25 3 13 0;
#X connect 26 0 14 0;
#X connect 26 1 14 0;
#X connect 26 2 14 0;
#X connect 26 3 14 0;
#X connect 28 0 10 0;
#X connect 28 0 24 0;
#X connect 28 0 25 0;
#X connect 28 0 26 0;
#X connect 28 0 27 0;
#X connect 28 0 90 0;
#X connect 29 0 71 0;
#X connect 30 0 63 0;
#X connect 30 0 129 0;
#X connect 30 0 127 0;
#X connect 32 0 3 0;
#X connect 33 0 5 1;
#X connect 34 0 21 0;
#X connect 36 0 37 0;
#X connect 37 0 38 0;
#X connect 38 0 97 0;
#X connect 38 0 138 0;
#X connect 38 1 98 0;
#X connect 38 1 139 0;
#X connect 38 2 101 0;
#X connect 38 2 140 0;
#X connect 39 0 40 0;
#X connect 40 0 121 0;
#X connect 40 0 131 0;
#X connect 40 1 122 0;
#X connect 40 1 132 0;
#X connect 40 2 125 0;
#X connect 40 2 133 0;
#X connect 41 0 45 0;
#X connect 41 0 56 0;
#X connect 42 0 5 0;
#X connect 46 0 0 0;
#X connect 47 0 48 0;
#X connect 48 0 68 0;
#X connect 49 0 36 0;
#X connect 50 0 51 0;
#X connect 51 0 69 0;
#X connect 52 0 56 0;
#X connect 53 0 59 0;
#X connect 55 0 70 0;
#X connect 56 0 39 0;
#X connect 57 0 42 0;
#X connect 58 0 53 0;
#X connect 59 0 106 0;
#X connect 59 0 134 0;
#X connect 59 1 114 0;
#X connect 59 1 135 0;
#X connect 59 2 115 0;
#X connect 59 2 136 0;
#X connect 59 3 116 0;
#X connect 59 3 137 0;
#X connect 60 0 15 0;
#X connect 61 0 33 0;
#X connect 62 0 61 1;
#X connect 64 0 67 0;
#X connect 65 0 64 0;
#X connect 67 0 66 0;
#X connect 68 0 49 0;
#X connect 69 0 52 0;
#X connect 70 0 58 0;
#X connect 70 0 54 0;
#X connect 71 0 31 0;
#X connect 71 0 60 0;
#X connect 73 0 75 0;
#X connect 74 0 77 0;
#X connect 76 0 91 0;
#X connect 76 0 142 0;
#X connect 77 0 72 0;
#X connect 77 0 73 0;
#X connect 79 0 88 0;
#X connect 80 0 79 0;
#X connect 82 0 8 0;
#X connect 83 0 81 0;
#X connect 83 0 109 0;
#X connect 83 0 110 0;
#X connect 84 0 85 0;
#X connect 85 0 87 0;
#X connect 86 0 85 1;
#X connect 87 0 46 0;
#X connect 88 0 82 0;
#X connect 89 0 79 1;
#X connect 90 0 78 0;
#X connect 90 1 78 0;
#X connect 91 0 93 0;
#X connect 92 0 93 0;
#X connect 93 0 0 1;
#X connect 94 0 95 0;
#X connect 95 0 3 1;
#X connect 96 0 3 1;
#X connect 97 0 95 0;
#X connect 98 0 96 0;
#X connect 99 0 3 1;
#X connect 100 0 96 0;
#X connect 101 0 99 0;
#X connect 102 0 99 0;
#X connect 103 0 104 0;
#X connect 104 0 18 1;
#X connect 105 0 18 1;
#X connect 106 0 104 0;
#X connect 107 0 18 1;
#X connect 108 0 82 1;
#X connect 109 0 108 0;
#X connect 110 0 108 0;
#X connect 111 0 105 0;
#X connect 112 0 107 0;
#X connect 113 0 18 1;
#X connect 114 0 105 0;
#X connect 115 0 107 0;
#X connect 116 0 113 0;
#X connect 117 0 113 0;
#X connect 118 0 21 1;
#X connect 119 0 21 1;
#X connect 120 0 21 1;
#X connect 121 0 118 0;
#X connect 122 0 119 0;
#X connect 123 0 118 0;
#X connect 124 0 119 0;
#X connect 125 0 120 0;
#X connect 126 0 120 0;
#X connect 127 0 130 0;
#X connect 128 0 64 1;
#X connect 129 0 128 0;
#X connect 130 0 128 0;
#X connect 131 0 123 0;
#X connect 132 0 124 0;
#X connect 133 0 126 0;
#X connect 134 0 103 0;
#X connect 135 0 111 0;
#X connect 136 0 112 0;
#X connect 137 0 117 0;
#X connect 138 0 94 0;
#X connect 139 0 100 0;
#X connect 140 0 102 0;
#X connect 141 0 110 0;
#X connect 142 0 92 0;
#X restore 673 854 pd drums;
#X obj 672 915 throw~ mix;
#X obj 354 74 f;
#X obj 407 85 + 1;
#X obj 355 103 mod 16;
#X obj 353 125 s drumstep;
#X obj 20 973 throw~ mix;
#X obj 881 743 hsl 128 15 0 1 0 0 empty empty empty -2 -8 0 10 -262144
-1 -1 0 1;
#N canvas 0 50 1587 759 basssynth 0;
#X obj 62 229 *~;
#X obj 31 149 mtof;
#X obj 115 275 +~ 200;
#X obj 105 304 vcf~;
#X obj 44 35 t f b;
#X obj 43 3 inlet;
#X obj 55 347 outlet~;
#X obj 31 174 osc~;
#X obj 31 196 *~ 1;
#X obj 45 73 +;
#X obj 126 5 inlet;
#X obj 114 254 *~ 100;
#X obj 224 149 mtof;
#X obj 237 35 t f b;
#X obj 224 174 osc~;
#X obj 239 73 +;
#X obj 239 95 - 12;
#X obj 228 232 *~;
#X obj 224 196 *~ 0.4;
#X obj 141 168 line~;
#X obj 299 171 line~;
#X msg 318 137 0 220;
#X msg 150 140 0 260;
#X msg 104 141 0.9 2;
#X msg 283 142 1 2;
#X obj 158 115 del 3;
#X obj 325 112 del 3;
#X connect 0 0 6 0;
#X connect 1 0 7 0;
#X connect 2 0 3 1;
#X connect 3 0 6 0;
#X connect 4 0 9 0;
#X connect 4 1 23 0;
#X connect 4 1 25 0;
#X connect 5 0 4 0;
#X connect 5 0 13 0;
#X connect 7 0 8 0;
#X connect 8 0 0 0;
#X connect 9 0 1 0;
#X connect 10 0 9 1;
#X connect 10 0 15 1;
#X connect 11 0 2 0;
#X connect 12 0 14 0;
#X connect 13 0 15 0;
#X connect 13 1 24 0;
#X connect 13 1 26 0;
#X connect 14 0 18 0;
#X connect 15 0 16 0;
#X connect 16 0 12 0;
#X connect 17 0 3 0;
#X connect 18 0 17 0;
#X connect 19 0 11 0;
#X connect 19 0 0 1;
#X connect 20 0 17 1;
#X connect 21 0 20 0;
#X connect 22 0 19 0;
#X connect 23 0 19 0;
#X connect 24 0 20 0;
#X connect 25 0 22 0;
#X connect 26 0 21 0;
#X restore 589 696 pd basssynth;
#X obj 585 663 unpack f f f;
#X obj 584 638 r bassnotes;
#X obj 594 777 throw~ mix;
#X obj 658 730 hsl 128 15 0 1 0 0 empty empty empty -2 -8 0 10 -262144
-1 -1 0 1;
#N canvas 0 239 1628 585 synseq 0;
#N canvas 669 153 641 389 ev 0;
#X obj 94 20 inlet;
#X obj 33 18 r step;
#X obj 40 177 s notes;
#X obj 96 52 unpack f f;
#X obj 39 147 f;
#X obj 37 93 ==;
#X obj 37 115 sel 1;
#X connect 0 0 3 0;
#X connect 1 0 5 0;
#X connect 3 0 5 1;
#X connect 3 1 4 1;
#X connect 4 0 2 0;
#X connect 5 0 6 0;
#X connect 6 0 4 0;
#X restore 23 392 pd ev;
#X obj 141 33 inlet;
#X obj 143 110 + 1;
#X obj 143 88 random 20;
#X msg 30 284 50, f 5;
#X obj 143 133 sel 1 2 3 4 5 6 7 8, f 90;
#X obj 32 334 pack f f;
#X obj 80 265 random 15;
#X obj 80 287 + 1;
#X obj 149 330 pack f f;
#X obj 214 250 random 15;
#X obj 214 272 + 1;
#X obj 262 335 pack f f;
#X obj 327 277 + 1;
#X obj 388 333 pack f f;
#X obj 453 253 random 15;
#X obj 453 275 + 1;
#X obj 330 247 random 15;
#X msg 157 284 53, f 5;
#X msg 270 289 55, f 5;
#X msg 396 287 57, f 5;
#X obj 504 340 pack f f;
#X obj 569 260 random 15;
#X obj 569 282 + 1;
#X msg 512 294 57, f 5;
#X obj 606 347 pack f f;
#X obj 671 267 random 15;
#X obj 671 289 + 1;
#X msg 614 301 57, f 5;
#X obj 705 356 pack f f;
#X obj 770 276 random 15;
#X obj 770 298 + 1;
#X msg 713 310 57, f 5;
#X msg 27 362 \$2 \$1;
#X msg 144 358 \$2 \$1;
#X msg 257 363 \$2 \$1;
#X msg 383 361 \$2 \$1;
#X msg 499 372 \$2 \$1;
#X msg 601 375 \$2 \$1;
#X obj 867 38 inlet;
#X text 912 62 input list of notes 8 notes;
#X obj 868 131 unpack f f f f f f f f;
#X msg 705 381 \$2 \$1;
#N canvas 669 153 641 389 ev 0;
#X obj 94 20 inlet;
#X obj 33 18 r step;
#X obj 40 177 s notes;
#X obj 96 52 unpack f f;
#X obj 39 147 f;
#X obj 37 93 ==;
#X obj 37 115 sel 1;
#X connect 0 0 3 0;
#X connect 1 0 5 0;
#X connect 3 0 5 1;
#X connect 3 1 4 1;
#X connect 4 0 2 0;
#X connect 5 0 6 0;
#X connect 6 0 4 0;
#X restore 144 396 pd ev;
#N canvas 669 153 641 389 ev 0;
#X obj 94 20 inlet;
#X obj 33 18 r step;
#X obj 40 177 s notes;
#X obj 96 52 unpack f f;
#X obj 39 147 f;
#X obj 37 93 ==;
#X obj 37 115 sel 1;
#X connect 0 0 3 0;
#X connect 1 0 5 0;
#X connect 3 0 5 1;
#X connect 3 1 4 1;
#X connect 4 0 2 0;
#X connect 5 0 6 0;
#X connect 6 0 4 0;
#X restore 253 398 pd ev;
#N canvas 669 153 641 389 ev 0;
#X obj 94 20 inlet;
#X obj 33 18 r step;
#X obj 40 177 s notes;
#X obj 96 52 unpack f f;
#X obj 39 147 f;
#X obj 37 93 ==;
#X obj 37 115 sel 1;
#X connect 0 0 3 0;
#X connect 1 0 5 0;
#X connect 3 0 5 1;
#X connect 3 1 4 1;
#X connect 4 0 2 0;
#X connect 5 0 6 0;
#X connect 6 0 4 0;
#X restore 374 402 pd ev;
#N canvas 669 153 641 389 ev 0;
#X obj 94 20 inlet;
#X obj 33 18 r step;
#X obj 40 177 s notes;
#X obj 96 52 unpack f f;
#X obj 39 147 f;
#X obj 37 93 ==;
#X obj 37 115 sel 1;
#X connect 0 0 3 0;
#X connect 1 0 5 0;
#X connect 3 0 5 1;
#X connect 3 1 4 1;
#X connect 4 0 2 0;
#X connect 5 0 6 0;
#X connect 6 0 4 0;
#X restore 490 411 pd ev;
#N canvas 669 153 641 389 ev 0;
#X obj 94 20 inlet;
#X obj 33 18 r step;
#X obj 40 177 s notes;
#X obj 96 52 unpack f f;
#X obj 39 147 f;
#X obj 37 93 ==;
#X obj 37 115 sel 1;
#X connect 0 0 3 0;
#X connect 1 0 5 0;
#X connect 3 0 5 1;
#X connect 3 1 4 1;
#X connect 4 0 2 0;
#X connect 5 0 6 0;
#X connect 6 0 4 0;
#X restore 611 415 pd ev;
#N canvas 669 153 641 389 ev 0;
#X obj 94 20 inlet;
#X obj 33 18 r step;
#X obj 40 177 s notes;
#X obj 96 52 unpack f f;
#X obj 39 147 f;
#X obj 37 93 ==;
#X obj 37 115 sel 1;
#X connect 0 0 3 0;
#X connect 1 0 5 0;
#X connect 3 0 5 1;
#X connect 3 1 4 1;
#X connect 4 0 2 0;
#X connect 5 0 6 0;
#X connect 6 0 4 0;
#X restore 720 417 pd ev;
#X connect 1 0 3 0;
#X connect 2 0 5 0;
#X connect 3 0 2 0;
#X connect 4 0 6 0;
#X connect 5 0 4 0;
#X connect 5 0 7 0;
#X connect 5 1 18 0;
#X connect 5 1 10 0;
#X connect 5 2 19 0;
#X connect 5 2 17 0;
#X connect 5 3 20 0;
#X connect 5 3 15 0;
#X connect 5 4 24 0;
#X connect 5 4 22 0;
#X connect 5 5 28 0;
#X connect 5 5 26 0;
#X connect 5 6 30 0;
#X connect 5 6 32 0;
#X connect 6 0 33 0;
#X connect 7 0 8 0;
#X connect 8 0 6 1;
#X connect 9 0 34 0;
#X connect 10 0 11 0;
#X connect 11 0 9 1;
#X connect 12 0 35 0;
#X connect 13 0 12 1;
#X connect 14 0 36 0;
#X connect 15 0 16 0;
#X connect 16 0 14 1;
#X connect 17 0 13 0;
#X connect 18 0 9 0;
#X connect 19 0 12 0;
#X connect 20 0 14 0;
#X connect 21 0 37 0;
#X connect 22 0 23 0;
#X connect 23 0 21 1;
#X connect 24 0 21 0;
#X connect 25 0 38 0;
#X connect 26 0 27 0;
#X connect 27 0 25 1;
#X connect 28 0 25 0;
#X connect 29 0 42 0;
#X connect 30 0 31 0;
#X connect 31 0 29 1;
#X connect 32 0 29 0;
#X connect 33 0 0 0;
#X connect 34 0 43 0;
#X connect 35 0 44 0;
#X connect 36 0 45 0;
#X connect 37 0 46 0;
#X connect 38 0 47 0;
#X connect 39 0 41 0;
#X connect 41 0 4 0;
#X connect 41 1 18 0;
#X connect 41 2 19 0;
#X connect 41 3 20 0;
#X connect 41 4 24 0;
#X connect 41 5 28 0;
#X connect 41 6 32 0;
#X connect 42 0 48 0;
#X restore 596 290 pd synseq;
#X obj 266 523 s winseq;
#X obj 268 397 bng 15 250 50 0 empty empty empty 17 7 0 10 -262144
-1 -1;
#X msg 308 421 0;
#X msg 269 421 1;
#X obj 389 753 r winseq;
#X obj 33 451 s loseseq;
#N canvas 271 150 1328 691 bassseq 0;
#X obj 141 33 inlet;
#X obj 143 110 + 1;
#X obj 143 88 random 20;
#X msg 30 284 50, f 5;
#X obj 143 133 sel 1 2 3 4 5 6 7 8, f 90;
#X obj 32 334 pack f f;
#X obj 80 265 random 15;
#X obj 80 287 + 1;
#X obj 149 330 pack f f;
#X obj 214 250 random 15;
#X obj 214 272 + 1;
#X obj 262 335 pack f f;
#X obj 327 277 + 1;
#X obj 388 333 pack f f;
#X obj 453 253 random 15;
#X obj 453 275 + 1;
#X obj 330 247 random 15;
#X msg 157 284 53, f 5;
#X msg 270 289 55, f 5;
#X msg 396 287 57, f 5;
#X obj 504 340 pack f f;
#X obj 569 260 random 15;
#X obj 569 282 + 1;
#X msg 512 294 57, f 5;
#X obj 606 347 pack f f;
#X obj 671 267 random 15;
#X obj 671 289 + 1;
#X msg 614 301 57, f 5;
#X obj 705 356 pack f f;
#X obj 770 276 random 15;
#X obj 770 298 + 1;
#X msg 713 310 57, f 5;
#X obj 859 344 pack f f;
#X obj 924 264 random 15;
#X obj 924 286 + 1;
#X msg 867 298 57, f 5;
#X msg 27 362 \$2 \$1;
#X msg 144 358 \$2 \$1;
#X msg 257 363 \$2 \$1;
#X msg 383 361 \$2 \$1;
#X msg 499 368 \$2 \$1;
#X msg 601 375 \$2 \$1;
#X msg 854 372 \$2 \$1;
#X obj 867 38 inlet;
#X text 912 62 input list of notes 8 notes;
#X obj 868 131 unpack f f f f f f f f;
#N canvas 669 153 641 389 evbass 0;
#X obj 122 18 inlet;
#X obj 124 50 unpack f f;
#X obj 39 147 f;
#X obj 34 18 r bassstep;
#X obj 40 177 s bassnotes;
#X obj 37 93 ==;
#X obj 37 115 sel 1;
#X connect 0 0 1 0;
#X connect 1 0 5 1;
#X connect 1 1 2 1;
#X connect 2 0 4 0;
#X connect 3 0 5 0;
#X connect 5 0 6 0;
#X connect 6 0 2 0;
#X restore 27 396 pd evbass;
#X msg 707 379 \$2 \$1;
#N canvas 669 153 641 389 evbass 0;
#X obj 122 18 inlet;
#X obj 124 50 unpack f f;
#X obj 39 147 f;
#X obj 34 18 r bassstep;
#X obj 40 177 s bassnotes;
#X obj 37 93 ==;
#X obj 37 115 sel 1;
#X connect 0 0 1 0;
#X connect 1 0 5 1;
#X connect 1 1 2 1;
#X connect 2 0 4 0;
#X connect 3 0 5 0;
#X connect 5 0 6 0;
#X connect 6 0 2 0;
#X restore 146 390 pd evbass;
#N canvas 669 153 641 389 evbass 0;
#X obj 122 18 inlet;
#X obj 124 50 unpack f f;
#X obj 39 147 f;
#X obj 34 18 r bassstep;
#X obj 40 177 s bassnotes;
#X obj 37 93 ==;
#X obj 37 115 sel 1;
#X connect 0 0 1 0;
#X connect 1 0 5 1;
#X connect 1 1 2 1;
#X connect 2 0 4 0;
#X connect 3 0 5 0;
#X connect 5 0 6 0;
#X connect 6 0 2 0;
#X restore 259 406 pd evbass;
#N canvas 669 153 641 389 evbass 0;
#X obj 122 18 inlet;
#X obj 124 50 unpack f f;
#X obj 39 147 f;
#X obj 34 18 r bassstep;
#X obj 40 177 s bassnotes;
#X obj 37 93 ==;
#X obj 37 115 sel 1;
#X connect 0 0 1 0;
#X connect 1 0 5 1;
#X connect 1 1 2 1;
#X connect 2 0 4 0;
#X connect 3 0 5 0;
#X connect 5 0 6 0;
#X connect 6 0 2 0;
#X restore 380 407 pd evbass;
#N canvas 669 153 641 389 evbass 0;
#X obj 122 18 inlet;
#X obj 124 50 unpack f f;
#X obj 39 147 f;
#X obj 34 18 r bassstep;
#X obj 40 177 s bassnotes;
#X obj 37 93 ==;
#X obj 37 115 sel 1;
#X connect 0 0 1 0;
#X connect 1 0 5 1;
#X connect 1 1 2 1;
#X connect 2 0 4 0;
#X connect 3 0 5 0;
#X connect 5 0 6 0;
#X connect 6 0 2 0;
#X restore 488 416 pd evbass;
#N canvas 669 153 641 389 evbass 0;
#X obj 122 18 inlet;
#X obj 124 50 unpack f f;
#X obj 39 147 f;
#X obj 34 18 r bassstep;
#X obj 40 177 s bassnotes;
#X obj 37 93 ==;
#X obj 37 115 sel 1;
#X connect 0 0 1 0;
#X connect 1 0 5 1;
#X connect 1 1 2 1;
#X connect 2 0 4 0;
#X connect 3 0 5 0;
#X connect 5 0 6 0;
#X connect 6 0 2 0;
#X restore 607 410 pd evbass;
#N canvas 669 153 641 389 evbass 0;
#X obj 122 18 inlet;
#X obj 124 50 unpack f f;
#X obj 39 147 f;
#X obj 34 18 r bassstep;
#X obj 40 177 s bassnotes;
#X obj 37 93 ==;
#X obj 37 115 sel 1;
#X connect 0 0 1 0;
#X connect 1 0 5 1;
#X connect 1 1 2 1;
#X connect 2 0 4 0;
#X connect 3 0 5 0;
#X connect 5 0 6 0;
#X connect 6 0 2 0;
#X restore 720 426 pd evbass;
#N canvas 669 153 641 389 evbass 0;
#X obj 122 18 inlet;
#X obj 124 50 unpack f f;
#X obj 39 147 f;
#X obj 34 18 r bassstep;
#X obj 40 177 s bassnotes;
#X obj 37 93 ==;
#X obj 37 115 sel 1;
#X connect 0 0 1 0;
#X connect 1 0 5 1;
#X connect 1 1 2 1;
#X connect 2 0 4 0;
#X connect 3 0 5 0;
#X connect 5 0 6 0;
#X connect 6 0 2 0;
#X restore 841 427 pd evbass;
#X connect 0 0 2 0;
#X connect 1 0 4 0;
#X connect 2 0 1 0;
#X connect 3 0 5 0;
#X connect 4 0 3 0;
#X connect 4 0 6 0;
#X connect 4 1 17 0;
#X connect 4 1 9 0;
#X connect 4 2 18 0;
#X connect 4 2 16 0;
#X connect 4 3 19 0;
#X connect 4 3 14 0;
#X connect 4 4 23 0;
#X connect 4 4 21 0;
#X connect 4 5 27 0;
#X connect 4 5 25 0;
#X connect 4 6 29 0;
#X connect 4 6 31 0;
#X connect 4 7 33 0;
#X connect 4 7 35 0;
#X connect 5 0 36 0;
#X connect 6 0 7 0;
#X connect 7 0 5 1;
#X connect 8 0 37 0;
#X connect 9 0 10 0;
#X connect 10 0 8 1;
#X connect 11 0 38 0;
#X connect 12 0 11 1;
#X connect 13 0 39 0;
#X connect 14 0 15 0;
#X connect 15 0 13 1;
#X connect 16 0 12 0;
#X connect 17 0 8 0;
#X connect 18 0 11 0;
#X connect 19 0 13 0;
#X connect 20 0 40 0;
#X connect 21 0 22 0;
#X connect 22 0 20 1;
#X connect 23 0 20 0;
#X connect 24 0 41 0;
#X connect 25 0 26 0;
#X connect 26 0 24 1;
#X connect 27 0 24 0;
#X connect 28 0 47 0;
#X connect 29 0 30 0;
#X connect 30 0 28 1;
#X connect 31 0 28 0;
#X connect 32 0 42 0;
#X connect 33 0 34 0;
#X connect 34 0 32 1;
#X connect 35 0 32 0;
#X connect 36 0 46 0;
#X connect 37 0 48 0;
#X connect 38 0 49 0;
#X connect 39 0 50 0;
#X connect 40 0 51 0;
#X connect 41 0 52 0;
#X connect 42 0 54 0;
#X connect 43 0 45 0;
#X connect 45 0 3 0;
#X connect 45 1 17 0;
#X connect 45 2 18 0;
#X connect 45 3 19 0;
#X connect 45 4 23 0;
#X connect 45 5 27 0;
#X connect 45 6 31 0;
#X connect 45 7 35 0;
#X connect 47 0 53 0;
#X restore 983 240 pd bassseq;
#X obj 755 869 hsl 128 15 0 1 0 0 empty empty empty -2 -8 0 10 -262144
-1 -1 0 1;
#X msg 1046 85 50 52 53 55 50 57 50 57;
#X msg 692 222 62 64 65 67 62 69 71 62;
#X obj 576 260 bng 15 250 50 0 empty empty empty 17 7 0 10 -262144
-1 -1;
#X obj 61 136 tgl 15 0 empty empty empty 17 7 0 10 -262144 -1 -1 1
1;
#X msg 667 270 62 62 65 69 62 69 69 62;
#X obj 980 214 bng 15 250 50 0 empty empty empty 17 7 0 10 -262144
-1 -1;
#N canvas 443 121 1261 718 chords 0;
#X obj 26 24 inlet;
#X obj 510 287 random 13;
#X obj 507 260 metro 10000;
#X obj 525 149 inlet;
#X obj 156 268 pack f f;
#X obj 164 179 t b b;
#X obj 256 266 pack f f;
#X obj 264 177 t b b;
#X obj 360 267 pack f f;
#X obj 368 178 t b b;
#X obj 524 175 unpack f f f f f f f f, f 51;
#X msg 55 233 62, f 5;
#X msg 103 233 65;
#X msg 159 234 62, f 5;
#X msg 207 234 64;
#X msg 259 232 74, f 5;
#X msg 307 232 65;
#X msg 363 233 67, f 5;
#X msg 411 233 69;
#X obj 59 181 t b b;
#X obj 42 102 random 5;
#X obj 42 124 sel 1;
#X obj 125 124 sel 1;
#X obj 224 104 random 5;
#X obj 224 126 sel 1;
#X obj 323 127 sel 1;
#X obj 125 102 random 6;
#X text 643 113 Chord list input \, 2 notes per chord;
#X msg 505 229 1;
#X obj 506 198 loadbang;
#X obj 323 105 random 7;
#N canvas 1012 148 641 389 ev 0;
#X obj 161 25 inlet;
#X obj 33 18 r step;
#X obj 163 57 unpack f f;
#X obj 39 147 f, f 14;
#X obj 41 246 s chordnotes;
#X obj 107 23 inlet;
#X obj 152 149 f, f 14;
#X obj 41 182 pack f f;
#X obj 37 93 ==;
#X obj 37 115 sel 1;
#X connect 0 0 2 0;
#X connect 1 0 8 0;
#X connect 2 0 3 1;
#X connect 2 1 6 1;
#X connect 3 0 7 0;
#X connect 5 0 8 1;
#X connect 6 0 7 1;
#X connect 7 0 4 0;
#X connect 8 0 9 0;
#X connect 9 0 3 0;
#X connect 9 0 6 0;
#X restore 55 364 pd ev;
#X msg 87 316 \$1 \$2;
#X obj 52 267 pack f f;
#X msg 31 315 1, f 6;
#X obj 52 289 del 2;
#X msg 201 324 \$1 \$2;
#X obj 166 297 del 2;
#X msg 317 324 \$1 \$2;
#X obj 282 297 del 2;
#X msg 435 342 \$1 \$2;
#X obj 409 305 del 2;
#X msg 145 323 6, f 6;
#X msg 261 323 11, f 6;
#X obj 612 357 del 2;
#X msg 564 387 62 74;
#X msg 509 386 \$1, f 6;
#N canvas 1012 148 641 389 ev 0;
#X obj 161 25 inlet;
#X obj 33 18 r step;
#X obj 163 57 unpack f f;
#X obj 39 147 f, f 14;
#X obj 41 246 s chordnotes;
#X obj 107 23 inlet;
#X obj 152 149 f, f 14;
#X obj 41 182 pack f f;
#X obj 37 93 ==;
#X obj 37 115 sel 1;
#X connect 0 0 2 0;
#X connect 1 0 8 0;
#X connect 2 0 3 1;
#X connect 2 1 6 1;
#X connect 3 0 7 0;
#X connect 5 0 8 1;
#X connect 6 0 7 1;
#X connect 7 0 4 0;
#X connect 8 0 9 0;
#X connect 9 0 3 0;
#X connect 9 0 6 0;
#X restore 163 364 pd ev;
#N canvas 1012 148 641 389 ev 0;
#X obj 161 25 inlet;
#X obj 33 18 r step;
#X obj 163 57 unpack f f;
#X obj 39 147 f, f 14;
#X obj 41 246 s chordnotes;
#X obj 107 23 inlet;
#X obj 152 149 f, f 14;
#X obj 41 182 pack f f;
#X obj 37 93 ==;
#X obj 37 115 sel 1;
#X connect 0 0 2 0;
#X connect 1 0 8 0;
#X connect 2 0 3 1;
#X connect 2 1 6 1;
#X connect 3 0 7 0;
#X connect 5 0 8 1;
#X connect 6 0 7 1;
#X connect 7 0 4 0;
#X connect 8 0 9 0;
#X connect 9 0 3 0;
#X connect 9 0 6 0;
#X restore 282 368 pd ev;
#N canvas 1012 148 641 389 ev 0;
#X obj 161 25 inlet;
#X obj 33 18 r step;
#X obj 163 57 unpack f f;
#X obj 39 147 f, f 14;
#X obj 41 246 s chordnotes;
#X obj 107 23 inlet;
#X obj 152 149 f, f 14;
#X obj 41 182 pack f f;
#X obj 37 93 ==;
#X obj 37 115 sel 1;
#X connect 0 0 2 0;
#X connect 1 0 8 0;
#X connect 2 0 3 1;
#X connect 2 1 6 1;
#X connect 3 0 7 0;
#X connect 5 0 8 1;
#X connect 6 0 7 1;
#X connect 7 0 4 0;
#X connect 8 0 9 0;
#X connect 9 0 3 0;
#X connect 9 0 6 0;
#X restore 389 386 pd ev;
#N canvas 1012 148 641 389 ev 0;
#X obj 161 25 inlet;
#X obj 33 18 r step;
#X obj 163 57 unpack f f;
#X obj 39 147 f, f 14;
#X obj 41 246 s chordnotes;
#X obj 107 23 inlet;
#X obj 152 149 f, f 14;
#X obj 41 182 pack f f;
#X obj 37 93 ==;
#X obj 37 115 sel 1;
#X connect 0 0 2 0;
#X connect 1 0 8 0;
#X connect 2 0 3 1;
#X connect 2 1 6 1;
#X connect 3 0 7 0;
#X connect 5 0 8 1;
#X connect 6 0 7 1;
#X connect 7 0 4 0;
#X connect 8 0 9 0;
#X connect 9 0 3 0;
#X connect 9 0 6 0;
#X restore 511 430 pd ev;
#X msg 378 337 15, f 6;
#X connect 0 0 20 0;
#X connect 0 0 23 0;
#X connect 0 0 26 0;
#X connect 0 0 30 0;
#X connect 1 0 46 0;
#X connect 1 0 44 0;
#X connect 1 0 45 0;
#X connect 2 0 1 0;
#X connect 3 0 10 0;
#X connect 4 0 36 0;
#X connect 4 0 37 0;
#X connect 5 0 13 0;
#X connect 5 1 14 0;
#X connect 6 0 38 0;
#X connect 6 0 39 0;
#X connect 7 0 15 0;
#X connect 7 1 16 0;
#X connect 8 0 40 0;
#X connect 8 0 41 0;
#X connect 9 0 17 0;
#X connect 9 1 18 0;
#X connect 10 0 11 0;
#X connect 10 1 12 0;
#X connect 10 2 13 0;
#X connect 10 3 14 0;
#X connect 10 4 15 0;
#X connect 10 5 16 0;
#X connect 10 6 17 0;
#X connect 10 7 18 0;
#X connect 11 0 33 0;
#X connect 12 0 33 1;
#X connect 13 0 4 0;
#X connect 14 0 4 1;
#X connect 15 0 6 0;
#X connect 16 0 6 1;
#X connect 17 0 8 0;
#X connect 18 0 8 1;
#X connect 19 0 11 0;
#X connect 19 1 12 0;
#X connect 20 0 21 0;
#X connect 21 0 19 0;
#X connect 22 0 5 0;
#X connect 23 0 24 0;
#X connect 24 0 7 0;
#X connect 25 0 9 0;
#X connect 26 0 22 0;
#X connect 28 0 2 0;
#X connect 29 0 28 0;
#X connect 30 0 25 0;
#X connect 32 0 31 1;
#X connect 33 0 32 0;
#X connect 33 0 35 0;
#X connect 34 0 31 0;
#X connect 35 0 34 0;
#X connect 36 0 47 1;
#X connect 37 0 42 0;
#X connect 38 0 48 1;
#X connect 39 0 43 0;
#X connect 40 0 49 1;
#X connect 41 0 51 0;
#X connect 42 0 47 0;
#X connect 43 0 48 0;
#X connect 44 0 45 0;
#X connect 45 0 50 1;
#X connect 46 0 50 0;
#X connect 51 0 49 0;
#X restore 438 335 pd chords;
#X msg 1044 52 50 57 55 50 57 50 53 57;
#X obj 572 230 metro 3000;
#X obj 980 188 metro 5000;
#N canvas 0 50 695 445 transpose 0;
#X obj 85 208 sel 1 2 3;
#X msg 83 265 -2;
#X msg 120 265 0;
#X msg 159 266 2;
#X obj 82 44 inlet;
#X obj 83 311 outlet;
#X obj 85 177 + 1;
#X obj 83 143 random 2;
#X obj 83 93 random 2;
#X obj 83 115 sel 1;
#X connect 0 0 1 0;
#X connect 0 1 2 0;
#X connect 0 2 3 0;
#X connect 1 0 5 0;
#X connect 2 0 5 0;
#X connect 3 0 5 0;
#X connect 4 0 8 0;
#X connect 6 0 0 0;
#X connect 7 0 6 0;
#X connect 8 0 9 0;
#X connect 9 0 7 0;
#X restore 698 581 pd transpose;
#X obj 696 557 bng 15 250 50 0 empty empty empty 17 7 0 10 -262144
-1 -1;
#X obj 692 533 metro 8000;
#X obj 355 44 r time;
#X msg 1085 174 38 45 38 40 41 38 45 47;
#X obj 386 847 throw~ mix;
#X obj 450 800 hsl 128 15 0 1 0 0 empty empty empty -2 -8 0 10 -262144
-1 -1 0 1;
#N canvas 515 66 1066 686 synth 0;
#X obj 46 304 *~;
#X obj 10 233 phasor~;
#X obj 10 208 mtof;
#X obj 51 113 t f b;
#X obj 63 22 inlet;
#X obj 46 541 outlet~;
#X obj 37 165 +, f 4;
#X obj 339 13 inlet;
#X obj 229 304 *~;
#X obj 193 208 mtof;
#X obj 282 350 +~ 200;
#X obj 225 389 vcf~, f 11;
#X obj 234 113 t f b;
#X obj 220 165 +, f 4;
#X obj 193 233 osc~;
#X obj 281 329 *~ 1000;
#X obj 419 293 *~;
#X obj 383 197 mtof;
#X obj 424 102 t f b;
#X obj 410 154 +, f 4;
#X obj 383 222 phasor~;
#X obj 414 417 *~;
#X obj 528 391 osc~ 0.1;
#X obj 415 378 lop~ 10000, f 12;
#X obj 529 414 clip~ 0 0.9;
#X obj 10 255 *~ 1;
#X obj 193 255 *~ 1;
#X obj 382 245 *~ 0.7;
#X msg 91 203 1;
#X obj 133 173 del 1;
#X obj 107 232 line~;
#X msg 276 217 1;
#X obj 318 187 del 1;
#X obj 292 246 line~;
#X msg 311 212 0 100;
#X msg 467 213 1;
#X obj 509 183 del 1;
#X obj 483 242 line~;
#X msg 502 208 0 100;
#X msg 126 198 0 240;
#X obj 42 389 lop~ 3000;
#X obj 595 275 snapshot~;
#X msg 688 221 1;
#X obj 688 248 metro 50;
#X obj 595 224 lop~ 20;
#X obj 595 297 * 10000;
#X obj 688 198 loadbang;
#X floatatom 611 351 8 0 0 0 - - -;
#X obj 595 246 clip~ 0 0.5;
#X obj 595 319 + 2000;
#X obj 595 198 osc~ 0.06;
#X connect 0 0 40 0;
#X connect 1 0 25 0;
#X connect 2 0 1 0;
#X connect 3 0 6 0;
#X connect 3 1 28 0;
#X connect 3 1 29 0;
#X connect 4 0 3 0;
#X connect 4 0 12 0;
#X connect 4 0 18 0;
#X connect 6 0 2 0;
#X connect 7 0 6 1;
#X connect 7 0 13 1;
#X connect 7 0 19 1;
#X connect 8 0 11 0;
#X connect 9 0 14 0;
#X connect 10 0 11 1;
#X connect 11 0 5 0;
#X connect 12 0 13 0;
#X connect 12 1 31 0;
#X connect 12 1 32 0;
#X connect 13 0 9 0;
#X connect 14 0 26 0;
#X connect 15 0 10 0;
#X connect 16 0 23 0;
#X connect 17 0 20 0;
#X connect 18 0 19 0;
#X connect 18 1 35 0;
#X connect 18 1 36 0;
#X connect 19 0 17 0;
#X connect 20 0 27 0;
#X connect 21 0 5 0;
#X connect 22 0 24 0;
#X connect 23 0 21 0;
#X connect 24 0 21 1;
#X connect 25 0 0 0;
#X connect 26 0 8 0;
#X connect 27 0 16 0;
#X connect 28 0 30 0;
#X connect 29 0 39 0;
#X connect 30 0 0 1;
#X connect 31 0 33 0;
#X connect 32 0 34 0;
#X connect 33 0 8 1;
#X connect 33 0 15 0;
#X connect 34 0 33 0;
#X connect 35 0 37 0;
#X connect 36 0 38 0;
#X connect 37 0 16 1;
#X connect 38 0 37 0;
#X connect 39 0 30 0;
#X connect 40 0 5 0;
#X connect 41 0 45 0;
#X connect 42 0 43 0;
#X connect 43 0 41 0;
#X connect 44 0 48 0;
#X connect 45 0 49 0;
#X connect 46 0 42 0;
#X connect 48 0 41 0;
#X connect 49 0 47 0;
#X connect 49 0 23 1;
#X connect 50 0 44 0;
#X restore 873 628 pd synth;
#N canvas 515 66 1066 686 synth 0;
#X obj 46 304 *~;
#X obj 10 233 phasor~;
#X obj 10 208 mtof;
#X obj 51 113 t f b;
#X obj 63 22 inlet;
#X obj 46 541 outlet~;
#X obj 37 165 +, f 4;
#X obj 339 13 inlet;
#X obj 229 304 *~;
#X obj 193 208 mtof;
#X obj 282 350 +~ 200;
#X obj 225 389 vcf~, f 11;
#X obj 234 113 t f b;
#X obj 220 165 +, f 4;
#X obj 193 233 osc~;
#X obj 281 329 *~ 1000;
#X obj 419 293 *~;
#X obj 383 197 mtof;
#X obj 415 378 vcf~, f 12;
#X obj 424 102 t f b;
#X obj 410 154 +, f 4;
#X obj 383 222 phasor~;
#X obj 481 339 +~ 200;
#X obj 480 318 *~ 4000;
#X obj 9 255 *~ 1;
#X obj 194 255 *~ 1;
#X msg 91 203 1;
#X obj 133 173 del 1;
#X obj 107 232 line~;
#X msg 269 227 1;
#X obj 311 197 del 1;
#X obj 285 256 line~;
#X msg 305 222 0 100;
#X msg 466 217 1;
#X obj 508 187 del 1;
#X obj 482 246 line~;
#X msg 501 212 0 120;
#X msg 126 198 0 280;
#X obj 382 245 *~ 0.6;
#X obj 42 389 lop~ 3000;
#X connect 0 0 39 0;
#X connect 1 0 24 0;
#X connect 2 0 1 0;
#X connect 3 0 6 0;
#X connect 3 1 26 0;
#X connect 3 1 27 0;
#X connect 4 0 3 0;
#X connect 4 0 12 0;
#X connect 4 0 19 0;
#X connect 6 0 2 0;
#X connect 7 0 6 1;
#X connect 7 0 13 1;
#X connect 7 0 20 1;
#X connect 8 0 11 0;
#X connect 9 0 14 0;
#X connect 10 0 11 1;
#X connect 11 0 5 0;
#X connect 12 0 13 0;
#X connect 12 1 29 0;
#X connect 12 1 30 0;
#X connect 13 0 9 0;
#X connect 14 0 25 0;
#X connect 15 0 10 0;
#X connect 16 0 18 0;
#X connect 17 0 21 0;
#X connect 18 0 5 0;
#X connect 19 0 20 0;
#X connect 19 1 33 0;
#X connect 19 1 34 0;
#X connect 20 0 17 0;
#X connect 21 0 38 0;
#X connect 22 0 18 1;
#X connect 23 0 22 0;
#X connect 24 0 0 0;
#X connect 25 0 8 0;
#X connect 26 0 28 0;
#X connect 27 0 37 0;
#X connect 28 0 0 1;
#X connect 29 0 31 0;
#X connect 30 0 32 0;
#X connect 31 0 8 1;
#X connect 31 0 15 0;
#X connect 32 0 31 0;
#X connect 33 0 35 0;
#X connect 34 0 36 0;
#X connect 35 0 16 1;
#X connect 35 0 23 0;
#X connect 36 0 35 0;
#X connect 37 0 28 0;
#X connect 38 0 16 0;
#X connect 39 0 5 0;
#X restore 947 628 pd synth;
#N canvas 30 56 1813 420 basssynth 0;
#X obj 62 229 *~;
#X obj 31 149 mtof;
#X obj 115 275 +~ 200;
#X obj 105 304 vcf~;
#X obj 44 35 t f b;
#X obj 43 3 inlet;
#X obj 55 347 outlet~;
#X obj 31 174 osc~;
#X obj 31 196 *~ 1;
#X obj 45 73 +;
#X obj 126 5 inlet;
#X obj 114 254 *~ 100;
#X obj 224 149 mtof;
#X obj 237 35 t f b;
#X obj 224 174 osc~;
#X obj 239 73 +;
#X obj 239 95 - 12;
#X obj 228 232 *~;
#X obj 224 196 *~ 0.4;
#X obj 122 150 line~;
#X obj 304 171 line~;
#X msg 153 119 0 260;
#X msg 335 138 0 220;
#X msg 119 122 1 2;
#X msg 301 143 1 2;
#X obj 161 92 del 3;
#X obj 343 113 del 3;
#X connect 0 0 6 0;
#X connect 1 0 7 0;
#X connect 2 0 3 1;
#X connect 3 0 6 0;
#X connect 4 0 9 0;
#X connect 4 1 23 0;
#X connect 4 1 25 0;
#X connect 5 0 4 0;
#X connect 5 0 13 0;
#X connect 7 0 8 0;
#X connect 8 0 0 0;
#X connect 9 0 1 0;
#X connect 10 0 9 1;
#X connect 10 0 15 1;
#X connect 11 0 2 0;
#X connect 12 0 14 0;
#X connect 13 0 15 0;
#X connect 13 1 24 0;
#X connect 13 1 26 0;
#X connect 14 0 18 0;
#X connect 15 0 16 0;
#X connect 16 0 12 0;
#X connect 17 0 3 0;
#X connect 18 0 17 0;
#X connect 19 0 0 1;
#X connect 19 0 11 0;
#X connect 20 0 17 1;
#X connect 21 0 19 0;
#X connect 22 0 20 0;
#X connect 23 0 19 0;
#X connect 24 0 20 0;
#X connect 25 0 21 0;
#X connect 26 0 22 0;
#X restore 692 694 pd basssynth;
#X obj 439 311 bng 15 250 50 0 empty empty empty 17 7 0 10 -262144
-1 -1;
#X msg 369 206 62 65 62 64 74 65 67 69;
#X obj 557 857 bng 15 250 50 0 empty empty empty 17 7 0 10 -262144
-1 -1;
#X obj 559 906 sel 1;
#X msg 593 971 0.9;
#X msg 560 931 0;
#X obj 558 834 metro 40000;
#X floatatom 687 765 5 0 0 0 - - -;
#X obj 467 295 metro 4000;
#X obj 1026 564 unpack f f f;
#N canvas 515 66 1066 686 synth 0;
#X obj 46 304 *~;
#X obj 10 233 phasor~;
#X obj 10 208 mtof;
#X obj 51 113 t f b;
#X obj 63 22 inlet;
#X obj 46 541 outlet~;
#X obj 37 165 +, f 4;
#X obj 339 13 inlet;
#X obj 229 304 *~;
#X obj 193 208 mtof;
#X obj 282 350 +~ 200;
#X obj 225 389 vcf~, f 11;
#X obj 234 113 t f b;
#X obj 220 165 +, f 4;
#X obj 193 233 osc~;
#X obj 281 329 *~ 1000;
#X obj 10 255 *~ 1;
#X obj 193 255 *~ 0.8;
#X msg 90 214 1;
#X obj 132 184 del 1;
#X obj 106 243 line~;
#X msg 125 209 0 300;
#X msg 274 216 1;
#X obj 316 186 del 1;
#X obj 290 245 line~;
#X msg 309 211 0 80;
#X obj 41 389 lop~ 2000;
#X connect 0 0 26 0;
#X connect 1 0 16 0;
#X connect 2 0 1 0;
#X connect 3 0 6 0;
#X connect 3 1 18 0;
#X connect 3 1 19 0;
#X connect 4 0 3 0;
#X connect 4 0 12 0;
#X connect 6 0 2 0;
#X connect 7 0 6 1;
#X connect 7 0 13 1;
#X connect 8 0 11 0;
#X connect 9 0 14 0;
#X connect 10 0 11 1;
#X connect 11 0 5 0;
#X connect 12 0 13 0;
#X connect 12 1 22 0;
#X connect 12 1 23 0;
#X connect 13 0 9 0;
#X connect 14 0 17 0;
#X connect 15 0 10 0;
#X connect 16 0 0 0;
#X connect 17 0 8 0;
#X connect 18 0 20 0;
#X connect 19 0 21 0;
#X connect 20 0 0 1;
#X connect 21 0 20 0;
#X connect 22 0 24 0;
#X connect 23 0 25 0;
#X connect 24 0 8 1;
#X connect 24 0 15 0;
#X connect 25 0 24 0;
#X connect 26 0 5 0;
#X restore 1026 628 pd synth;
#X obj 1039 789 throw~ mix;
#X obj 1103 742 hsl 128 15 0 1 0 0 empty empty empty -2 -8 0 10 -262144
-1 -1 0 1;
#X obj 1026 534 r chordnotes;
#X obj 527 952 del 7500;
#X obj 531 80 f;
#X obj 562 79 + 1;
#X obj 533 24 r time;
#X obj 531 105 mod 16;
#X obj 531 128 s bassstep;
#X obj 1171 588 noise~;
#X obj 1185 640 *~;
#X obj 1215 506 sel 1;
#X obj 1214 462 bng 15 250 50 0 empty empty empty 17 7 0 10 -262144
-1 -1;
#X obj 1215 484 random 9;
#X obj 289 969 throw~ mix;
#X obj 353 922 hsl 128 15 0 1 0 0 empty empty empty -2 -8 0 10 -262144
-1 -1 0 1;
#X obj 285 876 r loseseq;
#N canvas 1081 171 450 300 gen 0;
#X obj 46 118 f;
#X obj 46 209 + 50;
#X obj 86 115 + 1;
#X obj 46 147 mod 4;
#N canvas 909 119 828 588 Maj 0;
#X obj 91 147 inlet;
#X obj 91 169 mod 8;
#X obj 91 191 sel 0 1 2 3 4 5 6 7;
#X obj 115 303 outlet;
#X obj 274 161 unpack f f f f f f f f;
#X obj 67 235 f;
#X obj 98 237 f;
#X obj 129 235 f;
#X obj 157 238 f;
#X obj 186 237 f;
#X obj 214 237 f;
#X obj 242 237 f;
#X obj 272 236 f;
#X obj 314 8 inlet;
#X msg 281 96 0 2 3 5 7 8 10 12;
#X msg 258 69 0 2 4 5 7 9 11 12;
#X msg 302 124 0 2 3 5 7 9 11 12;
#X obj 313 40 sel 0 1 2, f 15;
#X connect 0 0 1 0;
#X connect 1 0 2 0;
#X connect 2 0 5 0;
#X connect 2 1 6 0;
#X connect 2 2 7 0;
#X connect 2 3 8 0;
#X connect 2 4 9 0;
#X connect 2 5 10 0;
#X connect 2 6 11 0;
#X connect 2 7 12 0;
#X connect 4 0 5 1;
#X connect 4 1 6 1;
#X connect 4 2 7 1;
#X connect 4 3 8 1;
#X connect 4 4 9 1;
#X connect 4 5 10 1;
#X connect 4 6 11 1;
#X connect 4 7 12 1;
#X connect 5 0 3 0;
#X connect 6 0 3 0;
#X connect 7 0 3 0;
#X connect 8 0 3 0;
#X connect 9 0 3 0;
#X connect 10 0 3 0;
#X connect 11 0 3 0;
#X connect 12 0 3 0;
#X connect 13 0 17 0;
#X connect 14 0 4 0;
#X connect 15 0 4 0;
#X connect 16 0 4 0;
#X connect 17 0 15 0;
#X connect 17 1 14 0;
#X connect 17 2 16 0;
#X restore 47 181 pd Maj;
#X obj 129 62 inlet;
#X obj 48 236 outlet;
#X obj 127 98 unpack f f f f;
#X obj 44 58 inlet;
#X connect 0 0 2 0;
#X connect 0 0 3 0;
#X connect 1 0 6 0;
#X connect 2 0 0 1;
#X connect 3 0 4 0;
#X connect 4 0 1 0;
#X connect 5 0 7 0;
#X connect 7 0 2 1;
#X connect 7 1 3 1;
#X connect 7 2 4 1;
#X connect 7 3 1 1;
#X connect 8 0 0 0;
#X restore 445 678 pd gen;
#X obj 446 707 s notes;
#X obj 486 564 bng 15 250 50 0 empty empty empty 17 7 0 10 -262144
-1 -1;
#X msg 484 651 1 4 1 50;
#X obj 434 641 spigot;
#X msg 487 616 1;
#X msg 521 616 0;
#X obj 431 617 r time;
#N canvas 1081 171 450 300 gen 0;
#X obj 46 118 f;
#X obj 46 209 + 50;
#X obj 86 115 + 1;
#X obj 46 147 mod 4;
#N canvas 909 119 828 588 Maj 0;
#X obj 91 147 inlet;
#X obj 91 169 mod 8;
#X obj 91 191 sel 0 1 2 3 4 5 6 7;
#X obj 115 303 outlet;
#X obj 274 161 unpack f f f f f f f f;
#X obj 67 235 f;
#X obj 98 237 f;
#X obj 129 235 f;
#X obj 157 238 f;
#X obj 186 237 f;
#X obj 214 237 f;
#X obj 242 237 f;
#X obj 272 236 f;
#X obj 314 8 inlet;
#X msg 281 96 0 2 3 5 7 8 10 12;
#X msg 258 69 0 2 4 5 7 9 11 12;
#X msg 302 124 0 2 3 5 7 9 11 12;
#X obj 313 40 sel 0 1 2, f 15;
#X connect 0 0 1 0;
#X connect 1 0 2 0;
#X connect 2 0 5 0;
#X connect 2 1 6 0;
#X connect 2 2 7 0;
#X connect 2 3 8 0;
#X connect 2 4 9 0;
#X connect 2 5 10 0;
#X connect 2 6 11 0;
#X connect 2 7 12 0;
#X connect 4 0 5 1;
#X connect 4 1 6 1;
#X connect 4 2 7 1;
#X connect 4 3 8 1;
#X connect 4 4 9 1;
#X connect 4 5 10 1;
#X connect 4 6 11 1;
#X connect 4 7 12 1;
#X connect 5 0 3 0;
#X connect 6 0 3 0;
#X connect 7 0 3 0;
#X connect 8 0 3 0;
#X connect 9 0 3 0;
#X connect 10 0 3 0;
#X connect 11 0 3 0;
#X connect 12 0 3 0;
#X connect 13 0 17 0;
#X connect 14 0 4 0;
#X connect 15 0 4 0;
#X connect 16 0 4 0;
#X connect 17 0 15 0;
#X connect 17 1 14 0;
#X connect 17 2 16 0;
#X restore 47 181 pd Maj;
#X obj 129 62 inlet;
#X obj 48 236 outlet;
#X obj 127 98 unpack f f f f;
#X obj 44 58 inlet;
#X connect 0 0 2 0;
#X connect 0 0 3 0;
#X connect 1 0 6 0;
#X connect 2 0 0 1;
#X connect 3 0 4 0;
#X connect 4 0 1 0;
#X connect 5 0 7 0;
#X connect 7 0 2 1;
#X connect 7 1 3 1;
#X connect 7 2 4 1;
#X connect 7 3 1 1;
#X connect 8 0 0 0;
#X restore 244 671 pd gen;
#X obj 245 700 s notes;
#X obj 337 557 bng 15 250 50 0 empty empty empty 17 7 0 10 -262144
-1 -1;
#X obj 233 634 spigot;
#X msg 337 608 1;
#X msg 372 609 0;
#X obj 230 610 r time;
#X obj 28 286 bng 15 250 50 0 empty empty empty 17 7 0 10 -262144 -1
-1;
#X msg 70 326 0;
#X msg 34 342 1;
#X msg 42 65 0;
#X msg 87 60 1;
#X obj 37 365 metro 300;
#X obj 67 305 del 3000;
#X msg 59 395 -1 6 1 48;
#N canvas 515 66 1066 686 synth 0;
#X obj 46 304 *~;
#X obj 10 208 mtof;
#X obj 51 113 t f b;
#X obj 63 22 inlet;
#X obj 46 541 outlet~;
#X obj 37 165 +, f 4;
#X obj 339 13 inlet;
#X obj 238 364 *~;
#X obj 202 268 mtof;
#X obj 291 410 +~ 200;
#X obj 234 449 vcf~, f 11;
#X obj 234 113 t f b;
#X obj 220 165 +, f 4;
#X obj 202 293 osc~;
#X obj 290 389 *~ 1000;
#X obj 10 233 osc~;
#X obj 220 187 + 5;
#X obj 202 315 *~ 1;
#X obj 10 255 *~ 1;
#X msg 91 203 1;
#X obj 133 173 del 1;
#X obj 107 232 line~;
#X msg 126 198 0 300;
#X msg 266 283 1;
#X obj 308 253 del 1;
#X obj 282 312 line~;
#X msg 301 278 0 80;
#X connect 0 0 4 0;
#X connect 1 0 15 0;
#X connect 2 0 5 0;
#X connect 2 1 19 0;
#X connect 2 1 20 0;
#X connect 3 0 2 0;
#X connect 3 0 11 0;
#X connect 5 0 1 0;
#X connect 6 0 5 1;
#X connect 6 0 12 1;
#X connect 7 0 10 0;
#X connect 8 0 13 0;
#X connect 9 0 10 1;
#X connect 10 0 4 0;
#X connect 11 0 12 0;
#X connect 11 1 23 0;
#X connect 11 1 24 0;
#X connect 12 0 16 0;
#X connect 13 0 17 0;
#X connect 14 0 9 0;
#X connect 15 0 18 0;
#X connect 16 0 8 0;
#X connect 17 0 7 0;
#X connect 18 0 0 0;
#X connect 19 0 21 0;
#X connect 20 0 22 0;
#X connect 21 0 0 1;
#X connect 22 0 21 0;
#X connect 23 0 25 0;
#X connect 24 0 26 0;
#X connect 25 0 14 0;
#X connect 25 0 7 1;
#X connect 26 0 25 0;
#X restore 390 777 pd synth;
#X obj 521 593 del 18000;
#X obj 372 575 del 30000;
#N canvas 515 66 1066 686 synth 0;
#X obj 46 304 *~;
#X obj 10 208 mtof;
#X obj 51 113 t f b;
#X obj 63 22 inlet;
#X obj 46 541 outlet~;
#X obj 37 165 +, f 4;
#X obj 339 13 inlet;
#X obj 238 364 *~;
#X obj 202 268 mtof;
#X obj 291 410 +~ 200;
#X obj 234 449 vcf~, f 11;
#X obj 234 113 t f b;
#X obj 220 165 +, f 4;
#X obj 202 293 osc~;
#X obj 290 389 *~ 1000;
#X obj 10 255 *~ 1.4;
#X obj 10 233 osc~;
#X obj 220 187 + 5;
#X obj 202 315 *~ 1.4;
#X obj 103 238 line~;
#X msg 122 204 0 300;
#X obj 295 315 line~;
#X msg 324 271 0 300;
#X obj 129 179 del 3;
#X obj 331 246 del 3;
#X msg 289 276 1 1;
#X msg 87 209 1 1;
#X obj 425 302 *~;
#X obj 389 206 mtof;
#X obj 430 111 t f b;
#X obj 482 236 line~;
#X msg 501 202 0 300;
#X obj 508 177 del 3;
#X msg 466 207 1 1;
#X obj 403 151 +;
#X obj 403 173 + 12;
#X obj 389 231 phasor~;
#X obj 389 253 *~ 0.4;
#X connect 0 0 4 0;
#X connect 1 0 16 0;
#X connect 2 0 5 0;
#X connect 2 1 26 0;
#X connect 2 1 23 0;
#X connect 3 0 2 0;
#X connect 3 0 11 0;
#X connect 3 0 29 0;
#X connect 5 0 1 0;
#X connect 6 0 5 1;
#X connect 6 0 12 1;
#X connect 6 0 34 1;
#X connect 7 0 10 0;
#X connect 8 0 13 0;
#X connect 9 0 10 1;
#X connect 10 0 4 0;
#X connect 11 0 12 0;
#X connect 11 1 25 0;
#X connect 11 1 24 0;
#X connect 12 0 17 0;
#X connect 13 0 18 0;
#X connect 14 0 9 0;
#X connect 15 0 0 0;
#X connect 16 0 15 0;
#X connect 17 0 8 0;
#X connect 18 0 7 0;
#X connect 19 0 0 1;
#X connect 20 0 19 0;
#X connect 21 0 7 1;
#X connect 21 0 14 0;
#X connect 22 0 21 0;
#X connect 23 0 20 0;
#X connect 24 0 22 0;
#X connect 25 0 21 0;
#X connect 26 0 19 0;
#X connect 27 0 4 0;
#X connect 28 0 36 0;
#X connect 29 0 34 0;
#X connect 29 1 33 0;
#X connect 29 1 32 0;
#X connect 30 0 27 1;
#X connect 31 0 30 0;
#X connect 32 0 31 0;
#X connect 33 0 30 0;
#X connect 34 0 35 0;
#X connect 35 0 28 0;
#X connect 36 0 37 0;
#X connect 37 0 27 0;
#X restore 289 904 pd synth;
#X msg 307 652 1 11 1 62;
#X floatatom 462 820 5 0 0 0 - - -;
#X obj 140 308 del 1000;
#X obj 206 310 del 2000;
#X msg 140 330 400;
#X msg 206 332 500;
#X obj 447 497 sel 1;
#X obj 486 430 bng 15 250 50 0 empty empty empty 17 7 0 10 -262144
-1 -1;
#X obj 486 404 metro 18000;
#X obj 773 153 sel 1;
#X obj 832 154 sel 9;
#X obj 822 86 bng 15 250 50 0 empty empty empty 17 7 0 10 -262144 -1
-1;
#X obj 822 60 metro 18000;
#X obj 886 153 sel 21;
#X obj 558 880 random 4;
#X obj 18 873 r Action @hv_event;
#N canvas 0 50 450 300 gen 0;
#X obj 46 118 f;
#X obj 46 209 + 50;
#X obj 86 115 + 1;
#X obj 46 147 mod 4;
#N canvas 909 119 828 588 Maj 0;
#X obj 91 147 inlet;
#X obj 91 169 mod 8;
#X obj 91 191 sel 0 1 2 3 4 5 6 7;
#X obj 115 303 outlet;
#X obj 274 161 unpack f f f f f f f f;
#X obj 67 235 f;
#X obj 98 237 f;
#X obj 129 235 f;
#X obj 157 238 f;
#X obj 186 237 f;
#X obj 214 237 f;
#X obj 242 237 f;
#X obj 272 236 f;
#X obj 314 8 inlet;
#X msg 281 96 0 2 3 5 7 8 10 12;
#X msg 258 69 0 2 4 5 7 9 11 12;
#X msg 302 124 0 2 3 5 7 9 11 12;
#X obj 313 40 sel 0 1 2;
#X connect 0 0 1 0;
#X connect 1 0 2 0;
#X connect 2 0 5 0;
#X connect 2 1 6 0;
#X connect 2 2 7 0;
#X connect 2 3 8 0;
#X connect 2 4 9 0;
#X connect 2 5 10 0;
#X connect 2 6 11 0;
#X connect 2 7 12 0;
#X connect 4 0 5 1;
#X connect 4 1 6 1;
#X connect 4 2 7 1;
#X connect 4 3 8 1;
#X connect 4 4 9 1;
#X connect 4 5 10 1;
#X connect 4 6 11 1;
#X connect 4 7 12 1;
#X connect 5 0 3 0;
#X connect 6 0 3 0;
#X connect 7 0 3 0;
#X connect 8 0 3 0;
#X connect 9 0 3 0;
#X connect 10 0 3 0;
#X connect 11 0 3 0;
#X connect 12 0 3 0;
#X connect 13 0 17 0;
#X connect 14 0 4 0;
#X connect 15 0 4 0;
#X connect 16 0 4 0;
#X connect 17 0 15 0;
#X connect 17 1 14 0;
#X connect 17 2 16 0;
#X restore 47 181 pd Maj;
#X obj 129 62 inlet;
#X obj 48 236 outlet;
#X obj 127 98 unpack f f f f;
#X obj 44 58 inlet;
#X connect 0 0 2 0;
#X connect 0 0 3 0;
#X connect 1 0 6 0;
#X connect 2 0 0 1;
#X connect 3 0 4 0;
#X connect 4 0 1 0;
#X connect 5 0 7 0;
#X connect 7 0 2 1;
#X connect 7 1 3 1;
#X connect 7 2 4 1;
#X connect 7 3 1 1;
#X connect 8 0 0 0;
#X restore 40 658 pd gen;
#X obj 41 561 bng 15 250 50 0 empty empty empty 17 7 0 10 -262144 -1
-1;
#X msg 81 585 0;
#X msg 42 585 1;
#X obj 84 563 del 200;
#X obj 39 687 s damageseq;
#X obj 138 831 throw~ mix;
#X obj 202 784 hsl 128 15 0 1 0 0 empty empty empty -2 -8 0 10 -262144
-1 -1 0 1;
#N canvas 515 66 1066 686 synth 0;
#X obj 46 304 *~;
#X obj 10 208 mtof;
#X obj 51 113 t f b;
#X obj 63 22 inlet;
#X obj 46 541 outlet~;
#X obj 37 165 +, f 4;
#X obj 339 13 inlet;
#X obj 238 364 *~;
#X obj 202 268 mtof;
#X obj 291 410 +~ 200;
#X obj 234 449 vcf~, f 11;
#X obj 234 113 t f b;
#X obj 220 165 +, f 4;
#X obj 290 389 *~ 1000;
#X obj 10 233 phasor~;
#X obj 202 293 phasor~;
#X obj 220 187 + 1;
#X obj 10 255 *~ 1;
#X obj 202 315 *~ 1;
#X msg 83 232 1;
#X obj 125 202 del 1;
#X obj 99 261 line~;
#X msg 118 227 0 300;
#X msg 280 262 1;
#X obj 322 232 del 1;
#X obj 296 291 line~;
#X msg 315 257 0 80;
#X connect 0 0 4 0;
#X connect 1 0 14 0;
#X connect 2 0 5 0;
#X connect 2 1 19 0;
#X connect 2 1 20 0;
#X connect 3 0 2 0;
#X connect 3 0 11 0;
#X connect 5 0 1 0;
#X connect 6 0 5 1;
#X connect 6 0 12 1;
#X connect 7 0 10 0;
#X connect 8 0 15 0;
#X connect 9 0 10 1;
#X connect 10 0 4 0;
#X connect 11 0 12 0;
#X connect 11 1 23 0;
#X connect 11 1 24 0;
#X connect 12 0 16 0;
#X connect 13 0 9 0;
#X connect 14 0 17 0;
#X connect 15 0 18 0;
#X connect 16 0 8 0;
#X connect 17 0 0 0;
#X connect 18 0 7 0;
#X connect 19 0 21 0;
#X connect 20 0 22 0;
#X connect 21 0 0 1;
#X connect 22 0 21 0;
#X connect 23 0 25 0;
#X connect 24 0 26 0;
#X connect 25 0 13 0;
#X connect 25 0 7 1;
#X connect 26 0 25 0;
#X restore 142 761 pd synth;
#X floatatom 209 803 5 0 0 0 - - -;
#X obj 141 737 r damageseq;
#X obj 271 445 metro 80;
#X msg 308 471 1 9 1 74;
#X obj 325 498 del 160;
#X obj 44 609 metro 160;
#X obj 42 530 r Damage @hv_event;
#X obj 271 360 r Collect @hv_event;
#X obj 26 207 r GameOver @hv_event;
#X obj 223 265 r Stop @hv_event;
#X obj 229 214 r Start @hv_event;
#X floatatom 912 770 5 0 0 0 - - -;
#X floatatom 1128 772 5 0 0 0 - - -;
#X obj 820 114 random 30;
#X obj 935 928 *~ 0.95;
#X msg 371 235 74 72 65 67 74 69 69 65;
#X msg 374 260 74 67 64 69 65 69 62 69;
#X obj 377 535 r IntenseLayer @hv_event;
#X msg 676 830 38;
#X obj 695 803 t b f;
#X obj 1235 623 line~;
#N canvas 515 66 1066 686 synth 0;
#X obj 46 304 *~;
#X obj 10 233 phasor~;
#X obj 10 208 mtof;
#X obj 51 113 t f b;
#X obj 63 22 inlet;
#X obj 46 541 outlet~;
#X obj 37 165 +, f 4;
#X obj 339 13 inlet;
#X obj 229 304 *~;
#X obj 193 208 mtof;
#X obj 282 350 +~ 200;
#X obj 225 389 vcf~, f 11;
#X obj 234 113 t f b;
#X obj 220 165 +, f 4;
#X obj 193 233 osc~;
#X obj 281 329 *~ 1000;
#X obj 10 255 *~ 1;
#X obj 193 255 *~ 0.8;
#X msg 90 214 1;
#X obj 132 184 del 1;
#X obj 106 243 line~;
#X msg 125 209 0 300;
#X msg 274 216 1;
#X obj 316 186 del 1;
#X obj 290 245 line~;
#X msg 309 211 0 80;
#X obj 41 389 lop~ 2000;
#X connect 0 0 26 0;
#X connect 1 0 16 0;
#X connect 2 0 1 0;
#X connect 3 0 6 0;
#X connect 3 1 18 0;
#X connect 3 1 19 0;
#X connect 4 0 3 0;
#X connect 4 0 12 0;
#X connect 6 0 2 0;
#X connect 7 0 6 1;
#X connect 7 0 13 1;
#X connect 8 0 11 0;
#X connect 9 0 14 0;
#X connect 10 0 11 1;
#X connect 11 0 5 0;
#X connect 12 0 13 0;
#X connect 12 1 22 0;
#X connect 12 1 23 0;
#X connect 13 0 9 0;
#X connect 14 0 17 0;
#X connect 15 0 10 0;
#X connect 16 0 0 0;
#X connect 17 0 8 0;
#X connect 18 0 20 0;
#X connect 19 0 21 0;
#X connect 20 0 0 1;
#X connect 21 0 20 0;
#X connect 22 0 24 0;
#X connect 23 0 25 0;
#X connect 24 0 8 1;
#X connect 24 0 15 0;
#X connect 25 0 24 0;
#X connect 26 0 5 0;
#X restore 1096 629 pd synth;
#X msg 1062 118 50 52 55 55 50 57 62 64;
#X obj 672 883 *~ 0.9;
#X obj 1280 530 del 25;
#X msg 1218 555 0.2 20;
#X msg 1272 555 0 4500;
#X obj 532 46 del 11;
#X obj 938 959 dac~;
#X obj 294 585 random 1;
#X obj 294 607 sel 1;
#X msg 325 676 -1 12 1 62;
#X obj 1185 662 *~ 0.1;
#X obj 1056 359 t b;
#X obj 1352 478 bng 15 250 50 0 empty empty empty 17 7 0 10 -262144
-1 -1;
#X obj 1399 525 del 25;
#X msg 1337 550 0.1 10;
#X msg 1391 550 0 4000;
#X obj 1056 403 sel 1;
#X obj 1056 381 random 2;
#X obj 850 423 t b;
#X obj 850 467 sel 1;
#X obj 850 445 random 1;
#X obj 1139 917 throw~ mix;
#X obj 1212 869 hsl 128 15 0 1 0 0 empty empty empty -2 -8 0 10 -262144
-1 -1 0 1;
#N canvas 0 50 981 733 reverb 0;
#X obj 188 449 +~;
#X obj 547 57 inlet;
#X obj 211 359 *~;
#X obj 513 364 *~;
#X obj 312 364 *~;
#X obj 414 364 *~;
#X obj 470 498 -~;
#X obj 391 497 -~;
#X obj 266 489 +~;
#X obj 188 486 +~;
#X obj 189 396 +~;
#X obj 289 392 +~;
#X obj 491 453 -~;
#X obj 414 451 +~;
#X obj 266 452 -~;
#X obj 479 57 inlet;
#X obj 636 381 line~;
#X obj 536 326 line~;
#X obj 43 73 delread~ \$0-del1 58.6435;
#X obj 121 95 delread~ \$0-del2 69.4325;
#X obj 203 117 delread~ \$0-del3 74.5234;
#X obj 285 141 delread~ \$0-del4 86.1244;
#X obj 557 452 *~;
#X obj 626 453 *~;
#X obj 188 593 delwrite~ \$0-del1 58.6435;
#X obj 267 569 delwrite~ \$0-del2 69.4325;
#X obj 392 547 delwrite~ \$0-del3 74.5234;
#X obj 471 525 delwrite~ \$0-del4 86.1244;
#X obj 636 309 dbtorms;
#X obj 636 355 pack 0 30;
#X obj 547 163 pack 0 50;
#X obj 36 342 inlet~;
#X obj 557 477 outlet~;
#X obj 626 477 outlet~;
#X obj 547 139 / 200;
#X obj 547 114 clip 0 100;
#X obj 79 188 lop~;
#X obj 479 89 f \$1;
#X obj 547 90 f \$2;
#X obj 652 95 f \$3;
#X obj 723 95 f \$4;
#X obj 394 58 loadbang;
#X obj 694 452 *~;
#X obj 762 453 *~;
#X obj 694 477 outlet~;
#X obj 762 477 outlet~;
#X obj 652 119 moses 1;
#X msg 658 145 3000;
#X obj 732 145 clip 0 100;
#N canvas 341 84 355 597 early-reflect 0;
#X obj 84 119 -~;
#X obj 49 119 +~;
#X obj 50 195 +~;
#X obj 85 196 -~;
#X obj 84 275 -~;
#X obj 49 274 +~;
#X obj 82 349 -~;
#X obj 48 350 +~;
#X obj 83 428 -~;
#X obj 49 428 +~;
#X obj 65 7 inlet~;
#X obj 49 508 outlet~;
#X obj 119 507 outlet~;
#X obj 110 66 delwrite~ \$0-ref1 43.5337;
#X obj 110 90 delread~ \$0-ref1 43.5337;
#X obj 107 145 delwrite~ \$0-ref2 25.796;
#X obj 107 169 delread~ \$0-ref2 25.796;
#X obj 106 223 delwrite~ \$0-ref3 19.392;
#X obj 106 247 delread~ \$0-ref3 19.392;
#X obj 102 300 delwrite~ \$0-ref4 16.364;
#X obj 102 324 delread~ \$0-ref4 16.364;
#X obj 119 452 delwrite~ \$0-ref6 4.2546;
#X obj 119 477 delread~ \$0-ref6 4.2546;
#X obj 106 376 delwrite~ \$0-ref5 7.645;
#X obj 106 400 delread~ \$0-ref5 7.645;
#X connect 0 0 15 0;
#X connect 1 0 3 0;
#X connect 1 0 2 0;
#X connect 2 0 5 0;
#X connect 2 0 4 0;
#X connect 3 0 17 0;
#X connect 4 0 19 0;
#X connect 5 0 7 0;
#X connect 5 0 6 0;
#X connect 6 0 23 0;
#X connect 7 0 9 0;
#X connect 7 0 8 0;
#X connect 8 0 21 0;
#X connect 9 0 11 0;
#X connect 10 0 1 0;
#X connect 10 0 0 0;
#X connect 10 0 13 0;
#X connect 14 0 1 1;
#X connect 14 0 0 1;
#X connect 16 0 2 1;
#X connect 16 0 3 1;
#X connect 18 0 5 1;
#X connect 18 0 4 1;
#X connect 20 0 7 1;
#X connect 20 0 6 1;
#X connect 22 0 12 0;
#X connect 24 0 9 1;
#X connect 24 0 8 1;
#X restore 36 368 pd early-reflect;
#X obj 645 168 f;
#X obj 645 57 inlet;
#X obj 723 61 inlet;
#X obj 732 168 f;
#X obj 732 191 * 0.01;
#X obj 732 215 pack 0 50;
#X obj 732 239 line~;
#X obj 56 221 -~;
#X obj 55 252 *~;
#X obj 43 283 +~;
#X obj 159 192 lop~;
#X obj 133 226 -~;
#X obj 132 261 *~;
#X obj 122 285 +~;
#X obj 241 197 lop~;
#X obj 215 225 -~;
#X obj 214 266 *~;
#X obj 203 291 +~;
#X obj 335 201 lop~;
#X obj 308 226 -~;
#X obj 308 270 *~;
#X obj 285 294 +~;
#X obj 636 331 * 0.125, f 28;
#X connect 0 0 9 0;
#X connect 0 0 7 0;
#X connect 1 0 38 0;
#X connect 2 0 10 1;
#X connect 3 0 12 1;
#X connect 3 0 13 1;
#X connect 3 0 43 0;
#X connect 4 0 11 1;
#X connect 5 0 13 0;
#X connect 5 0 12 0;
#X connect 5 0 42 0;
#X connect 6 0 27 0;
#X connect 7 0 26 0;
#X connect 8 0 25 0;
#X connect 9 0 24 0;
#X connect 10 0 14 0;
#X connect 10 0 0 0;
#X connect 10 0 22 0;
#X connect 11 0 0 1;
#X connect 11 0 14 1;
#X connect 11 0 23 0;
#X connect 12 0 8 1;
#X connect 12 0 6 1;
#X connect 13 0 9 1;
#X connect 13 0 7 1;
#X connect 14 0 8 0;
#X connect 14 0 6 0;
#X connect 15 0 37 0;
#X connect 16 0 22 1;
#X connect 16 0 23 1;
#X connect 16 0 42 1;
#X connect 16 0 43 1;
#X connect 17 0 4 1;
#X connect 17 0 2 1;
#X connect 17 0 5 1;
#X connect 17 0 3 1;
#X connect 18 0 36 0;
#X connect 18 0 57 1;
#X connect 18 0 59 0;
#X connect 19 0 60 0;
#X connect 19 0 61 1;
#X connect 19 0 63 0;
#X connect 20 0 67 0;
#X connect 20 0 64 0;
#X connect 20 0 65 1;
#X connect 21 0 71 0;
#X connect 21 0 69 1;
#X connect 21 0 68 0;
#X connect 22 0 32 0;
#X connect 23 0 33 0;
#X connect 28 0 72 0;
#X connect 29 0 16 0;
#X connect 30 0 17 0;
#X connect 31 0 49 0;
#X connect 34 0 30 0;
#X connect 35 0 34 0;
#X connect 36 0 57 0;
#X connect 37 0 28 0;
#X connect 38 0 35 0;
#X connect 39 0 46 0;
#X connect 40 0 48 0;
#X connect 41 0 37 0;
#X connect 41 0 38 0;
#X connect 41 0 39 0;
#X connect 41 0 40 0;
#X connect 42 0 44 0;
#X connect 43 0 45 0;
#X connect 46 0 47 0;
#X connect 46 1 50 0;
#X connect 47 0 50 0;
#X connect 48 0 53 0;
#X connect 49 0 10 0;
#X connect 49 1 11 0;
#X connect 50 0 36 1;
#X connect 50 0 60 1;
#X connect 50 0 64 1;
#X connect 50 0 68 1;
#X connect 51 0 50 0;
#X connect 52 0 40 0;
#X connect 53 0 54 0;
#X connect 54 0 55 0;
#X connect 55 0 56 0;
#X connect 56 0 58 1;
#X connect 56 0 62 1;
#X connect 56 0 66 1;
#X connect 56 0 70 1;
#X connect 57 0 58 0;
#X connect 58 0 59 1;
#X connect 59 0 2 0;
#X connect 60 0 61 0;
#X connect 61 0 62 0;
#X connect 62 0 63 1;
#X connect 63 0 4 0;
#X connect 64 0 65 0;
#X connect 65 0 66 0;
#X connect 66 0 67 1;
#X connect 67 0 5 0;
#X connect 68 0 69 0;
#X connect 69 0 70 0;
#X connect 70 0 71 1;
#X connect 71 0 3 0;
#X connect 72 0 29 0;
#X restore 1133 860 pd reverb;
#X msg 1184 833 100;
#X obj 1187 806 loadbang;
#X floatatom 1230 901 5 0 0 0 - - -;
#X msg 1285 833 1000, f 5;
#X msg 1227 833 80;
#X obj 1063 830 catch~ rev;
#X obj 207 90 metro 134;
#X obj 387 817 *~ 0.5;
#X obj 1048 943 r MasterVolume @hv_param 0 1 0.9;
#X obj 139 801 *~ 0.4;
#X msg 81 635 -1 2 1 67;
#X obj 290 939 *~ 0.7;
#X obj 21 946 *~ 4;
#X msg 82 777 0;
#X msg 290 811 0.5;
#X msg 331 812 0;
#X msg 41 776 0.4;
#X obj 28 731 t b;
#X obj 251 740 t b;
#X obj 596 747 *~ 0.6;
#X obj 1040 759 *~ 0.25;
#X obj 626 356 del 2000;
#X obj 815 760 *~ 0.35;
#X obj 684 41 t b;
#X obj 1139 887 *~ 0.22;
#N canvas 153 256 778 300 syndelay 0;
#X obj 110 62 inlet~;
#X obj 236 201 outlet~;
#X obj 411 130 *~ 0.7;
#X obj 300 37 * 2;
#X obj 301 15 inlet;
#X obj 111 128 delread~ syndelay1 268;
#X obj 110 94 delwrite~ syndelay1 268;
#X obj 410 74 delwrite~ syndelay2 268;
#X obj 411 108 delread~ syndelay2 268;
#X connect 0 0 6 0;
#X connect 2 0 1 0;
#X connect 3 0 5 0;
#X connect 3 0 6 0;
#X connect 3 0 7 0;
#X connect 3 0 8 0;
#X connect 4 0 3 0;
#X connect 5 0 1 0;
#X connect 5 0 7 0;
#X connect 8 0 2 0;
#X restore 1289 682 pd syndelay;
#X obj 1288 753 throw~ mix;
#X obj 1371 707 hsl 128 15 0 1 0 0 empty empty empty -2 -8 0 10 -262144
-1 -1 0 1;
#X floatatom 1379 738 5 0 0 0 - - -;
#X obj 1288 722 *~ 0.08;
#X obj 484 458 random 20;
#X obj 496 498 sel 10;
#X connect 0 0 34 0;
#X connect 2 0 29 0;
#X connect 3 0 4 0;
#X connect 3 1 54 0;
#X connect 3 2 55 0;
#X connect 4 0 205 0;
#X connect 4 0 208 0;
#X connect 5 0 151 0;
#X connect 6 0 7 0;
#X connect 6 0 9 0;
#X connect 7 0 6 1;
#X connect 8 0 6 0;
#X connect 9 0 10 0;
#X connect 11 0 3 0;
#X connect 12 0 195 0;
#X connect 14 0 12 0;
#X connect 15 0 160 0;
#X connect 17 0 18 0;
#X connect 17 0 19 0;
#X connect 18 0 17 1;
#X connect 19 0 20 0;
#X connect 22 0 148 0;
#X connect 22 0 205 1;
#X connect 23 0 202 0;
#X connect 24 0 23 0;
#X connect 24 1 56 0;
#X connect 25 0 24 0;
#X connect 27 0 64 0;
#X connect 27 0 202 1;
#X connect 30 0 32 0;
#X connect 30 0 140 0;
#X connect 30 0 141 0;
#X connect 31 0 139 0;
#X connect 32 0 139 0;
#X connect 33 0 108 0;
#X connect 36 0 160 1;
#X connect 37 0 35 1;
#X connect 38 0 28 1;
#X connect 39 0 28 0;
#X connect 40 0 45 0;
#X connect 40 0 46 0;
#X connect 40 0 49 0;
#X connect 40 0 63 0;
#X connect 40 0 65 0;
#X connect 40 0 120 0;
#X connect 40 0 124 0;
#X connect 41 0 28 1;
#X connect 42 0 35 0;
#X connect 44 0 35 1;
#X connect 45 0 39 0;
#X connect 46 0 42 0;
#X connect 47 0 23 1;
#X connect 47 0 4 1;
#X connect 47 0 56 1;
#X connect 47 0 54 1;
#X connect 47 0 55 1;
#X connect 47 0 67 1;
#X connect 47 0 80 0;
#X connect 47 0 108 1;
#X connect 47 0 156 0;
#X connect 47 0 158 1;
#X connect 48 0 47 0;
#X connect 49 0 48 0;
#X connect 50 0 17 0;
#X connect 51 0 35 1;
#X connect 53 0 113 0;
#X connect 53 0 190 1;
#X connect 54 0 205 0;
#X connect 54 0 208 0;
#X connect 55 0 205 0;
#X connect 55 0 208 0;
#X connect 56 0 202 0;
#X connect 57 0 43 0;
#X connect 58 0 43 1;
#X connect 59 0 126 0;
#X connect 60 0 62 0;
#X connect 60 0 71 0;
#X connect 61 0 160 1;
#X connect 62 0 160 1;
#X connect 63 0 59 0;
#X connect 65 0 57 0;
#X connect 66 0 67 0;
#X connect 66 1 158 0;
#X connect 67 0 182 0;
#X connect 67 0 203 0;
#X connect 69 0 149 0;
#X connect 69 0 203 1;
#X connect 70 0 66 0;
#X connect 71 0 61 0;
#X connect 71 0 98 0;
#X connect 71 0 170 0;
#X connect 72 0 73 0;
#X connect 72 0 75 0;
#X connect 73 0 72 1;
#X connect 74 0 164 0;
#X connect 75 0 76 0;
#X connect 77 0 78 0;
#X connect 78 0 169 0;
#X connect 78 0 182 0;
#X connect 79 0 98 0;
#X connect 79 0 161 0;
#X connect 79 0 162 0;
#X connect 80 0 81 0;
#X connect 81 0 79 0;
#X connect 83 0 194 1;
#X connect 84 0 111 0;
#X connect 85 0 86 0;
#X connect 87 0 90 0;
#X connect 87 0 88 0;
#X connect 87 0 109 0;
#X connect 88 0 85 1;
#X connect 89 0 85 0;
#X connect 90 0 89 1;
#X connect 91 0 89 1;
#X connect 92 0 89 0;
#X connect 93 0 94 0;
#X connect 95 0 97 0;
#X connect 95 0 110 0;
#X connect 95 0 166 0;
#X connect 96 0 93 0;
#X connect 97 0 96 1;
#X connect 98 0 96 1;
#X connect 99 0 96 0;
#X connect 100 0 102 0;
#X connect 100 0 107 0;
#X connect 100 0 103 0;
#X connect 100 0 106 0;
#X connect 100 0 114 0;
#X connect 100 0 115 0;
#X connect 101 0 105 0;
#X connect 102 0 105 0;
#X connect 103 0 189 0;
#X connect 103 0 40 0;
#X connect 103 0 201 0;
#X connect 104 0 189 0;
#X connect 104 0 40 0;
#X connect 104 0 200 0;
#X connect 104 0 204 0;
#X connect 104 0 206 0;
#X connect 105 0 0 0;
#X connect 106 0 101 0;
#X connect 107 0 0 1;
#X connect 108 0 190 0;
#X connect 109 0 91 0;
#X connect 110 0 98 0;
#X connect 111 0 194 0;
#X connect 112 0 93 1;
#X connect 114 0 116 0;
#X connect 115 0 117 0;
#X connect 116 0 105 1;
#X connect 117 0 105 1;
#X connect 118 0 95 0;
#X connect 119 0 213 0;
#X connect 120 0 119 0;
#X connect 121 0 58 0;
#X connect 121 0 37 0;
#X connect 121 0 38 0;
#X connect 122 0 159 0;
#X connect 123 0 150 0;
#X connect 124 0 123 0;
#X connect 125 0 51 0;
#X connect 125 0 41 0;
#X connect 125 0 153 0;
#X connect 126 0 60 0;
#X connect 127 0 14 0;
#X connect 128 0 133 0;
#X connect 129 0 131 0;
#X connect 129 0 193 0;
#X connect 129 0 132 0;
#X connect 130 0 142 0;
#X connect 131 0 142 0;
#X connect 132 0 130 0;
#X connect 135 0 137 0;
#X connect 135 0 192 1;
#X connect 136 0 192 0;
#X connect 138 0 136 0;
#X connect 139 0 2 0;
#X connect 140 0 2 1;
#X connect 141 0 31 0;
#X connect 142 0 128 0;
#X connect 143 0 129 0;
#X connect 144 0 30 0;
#X connect 145 0 100 0;
#X connect 146 0 103 0;
#X connect 147 0 104 0;
#X connect 150 0 121 0;
#X connect 150 0 122 0;
#X connect 150 0 125 0;
#X connect 151 0 165 0;
#X connect 151 0 165 1;
#X connect 152 0 43 1;
#X connect 153 0 43 1;
#X connect 154 0 95 0;
#X connect 155 0 15 0;
#X connect 156 0 155 0;
#X connect 156 1 15 1;
#X connect 157 0 78 1;
#X connect 158 0 182 0;
#X connect 158 0 203 0;
#X connect 159 0 35 1;
#X connect 160 0 16 0;
#X connect 161 0 163 0;
#X connect 162 0 157 0;
#X connect 163 0 157 0;
#X connect 164 0 72 0;
#X connect 166 0 167 0;
#X connect 167 0 112 0;
#X connect 167 1 168 0;
#X connect 168 0 93 1;
#X connect 169 0 203 0;
#X connect 170 0 176 0;
#X connect 171 0 173 0;
#X connect 171 0 172 0;
#X connect 172 0 174 0;
#X connect 173 0 157 0;
#X connect 174 0 157 0;
#X connect 175 0 171 0;
#X connect 175 0 91 0;
#X connect 175 0 177 0;
#X connect 176 0 175 0;
#X connect 177 0 179 0;
#X connect 178 0 98 0;
#X connect 179 0 178 0;
#X connect 181 0 185 0;
#X connect 181 0 207 1;
#X connect 182 0 207 0;
#X connect 183 0 182 1;
#X connect 184 0 183 0;
#X connect 184 0 187 0;
#X connect 184 0 186 0;
#X connect 186 0 182 3;
#X connect 187 0 182 2;
#X connect 188 0 182 0;
#X connect 189 0 1 0;
#X connect 190 0 52 0;
#X connect 191 0 151 1;
#X connect 192 0 134 0;
#X connect 193 0 128 1;
#X connect 194 0 82 0;
#X connect 195 0 21 0;
#X connect 196 0 192 1;
#X connect 197 0 190 1;
#X connect 198 0 190 1;
#X connect 199 0 192 1;
#X connect 200 0 199 0;
#X connect 200 0 197 0;
#X connect 201 0 196 0;
#X connect 201 0 198 0;
#X connect 202 0 26 0;
#X connect 203 0 68 0;
#X connect 204 0 37 0;
#X connect 205 0 13 0;
#X connect 206 0 43 0;
#X connect 206 0 38 0;
#X connect 206 0 35 0;
#X connect 206 0 44 0;
#X connect 207 0 180 0;
#X connect 208 0 212 0;
#X connect 210 0 211 0;
#X connect 210 0 212 1;
#X connect 212 0 209 0;
#X connect 213 0 118 0;
#X connect 213 0 214 0;
#X connect 214 0 87 0;
